<?xml version="1.0" standalone="no"?>
<!DOCTYPE svg PUBLIC "-//W3C//DTD SVG 1.1//EN" "http://www.w3.org/Graphics/SVG/1.1/DTD/svg11.dtd" >
<svg xmlns="http://www.w3.org/2000/svg" xmlns:xlink="http://www.w3.org/1999/xlink" version="1.1">
<metadata>
Created by FontForge 20161003 at Tue Aug  6 13:10:18 2019
 By www-data
Copyright (c) 1991 Digital Typeface Corp.
</metadata>
<defs>
<font id="fgwo" horiz-adv-x="2048" >
  <font-face 
    font-family="fgwo"
    font-weight="400"
    font-style="italic"
    font-stretch="normal"
    units-per-em="4096"
    panose-1="2 11 114 0 0 0 0 0 0 0"
    ascent="3276"
    descent="-820"
    x-height="1937"
    cap-height="2732"
    bbox="-737 -979 4170 3842"
    underline-thickness="99"
    underline-position="-250"
    slope="10"
    unicode-range="U+0020-F002"
  />
<missing-glyph horiz-adv-x="3072" 
d="M512 0v2560h2048v-2560h-2048zM2494 66v2428h-1916v-2428h1916z" />
    <glyph glyph-name=".notdef" horiz-adv-x="3072" 
d="M512 0v2560h2048v-2560h-2048zM2494 66v2428h-1916v-2428h1916z" />
    <glyph glyph-name=".null" horiz-adv-x="0" 
 />
    <glyph glyph-name="nonmarkingreturn" horiz-adv-x="0" 
 />
    <glyph glyph-name="space" unicode=" " horiz-adv-x="1217" 
 />
    <glyph glyph-name="exclam" unicode="!" horiz-adv-x="1176" 
d="M549 983l119 1749h794l-495 -1749h-418zM229 0l119 684h709l-119 -684h-709z" />
    <glyph glyph-name="quotedbl" unicode="&#x22;" horiz-adv-x="1864" 
d="M1004 1634h-496l65 1094h754zM1925 1634h-495l65 1094h754z" />
    <glyph glyph-name="numbersign" unicode="#" horiz-adv-x="2650" 
d="M1987 782l-271 -782h-393l274 782h-454l-275 -782h-385l271 782h-402l70 385h471l156 451h-402l70 385h471l254 729h385l-254 -729h455l258 729h389l-254 -729h360l-69 -385h-431l-155 -451h360l-69 -385h-430zM1892 1618h-454l-160 -451h455z" />
    <glyph glyph-name="dollar" unicode="$" horiz-adv-x="2429" 
d="M1130 430l111 614q-193 34 -302.5 68t-197.5 88q-258 150 -258 483q0 89 17 164q30 168 117 310t220 250.5t310 179t377 92.5l45 237h381l-45 -241q218 -35 354 -92t285 -175l-398 -426q-80 96 -144 139.5t-179 82.5l-103 -582l95 -12q146 -18 230.5 -43t162.5 -80
q262 -169 262 -516q0 -72 -12 -152q-39 -223 -169.5 -394t-345.5 -279.5t-505 -149.5l-70 -406h-381l66 394q-323 32 -521 113t-356 247l422 397q126 -141 233 -202.5t299 -108.5zM1511 426q191 41 284 108.5t114 182.5q0 125 -69 186t-230 88zM1446 2220
q-351 -71 -385 -287q0 -110 64.5 -164t226.5 -90z" />
    <glyph glyph-name="percent" unicode="%" horiz-adv-x="2585" 
d="M1212 2773q143 0 249.5 -56.5t164 -161t57.5 -241.5q0 -78 -8 -119q-33 -180 -125.5 -315.5t-233.5 -209t-308 -73.5q-220 0 -348 122.5t-128 332.5q0 58 13 131q30 173 123.5 307.5t234 208.5t309.5 74zM1176 2560q-98 0 -158.5 -90t-95.5 -287q-17 -90 -17 -180
q6 -197 135 -197q189 0 254 377q17 92 17 180q-6 197 -135 197zM262 0l2208 2732h340l-2220 -2732h-328zM2056 1135q216 0 343.5 -125.5t127.5 -333.5q0 -78 -8 -119q-48 -270 -231 -434t-437 -164q-145 0 -253 56t-165 161t-57 242q0 62 13 127q30 173 123.5 307.5
t234 208.5t309.5 74zM2023 926q-193 0 -258 -381q-16 -93 -16 -176q0 -201 135 -201q189 0 254 377q21 128 21 188q0 193 -136 193z" />
    <glyph glyph-name="ampersand" unicode="&#x26;" horiz-adv-x="2920" 
d="M2966 561l-103 -594h-110q-275 0 -459 64t-336 215q-222 -155 -437 -227t-448 -72q-251 0 -440 75t-290 213.5t-101 321.5q0 61 12 123q30 172 126 312.5t269 266.5t441 248q-160 272 -160 455q0 57 12 119q28 159 110 289t211 223t298.5 142.5t363.5 49.5
q169 0 304 -35.5t231.5 -102t147 -158t50.5 -203.5q0 -33 -8 -91q-24 -135 -120 -276t-240 -252q-129 -93 -316 -201l279 -393q189 189 344 475l446 -188q-177 -357 -520 -655q155 -144 373 -144h70zM1298 1143q-161 -97 -233 -177t-90 -184q0 -157 78 -244t209 -87
q178 0 397 151zM1769 1798q275 134 312 348q0 119 -58.5 180.5t-162.5 61.5q-96 0 -163.5 -52.5t-82.5 -135.5q0 -123 33.5 -208.5t121.5 -193.5z" />
    <glyph glyph-name="quotesingle" unicode="'" horiz-adv-x="967" 
d="M1024 1634h-512l61 1094h775z" />
    <glyph glyph-name="parenleft" unicode="(" horiz-adv-x="1204" 
d="M1155 2966l401 -177l-16 -24q-283 -511 -438 -919.5t-234 -854.5q-65 -361 -65 -721q0 -456 115 -1024l12 -49l-467 -176q-189 695 -189 1270q0 342 62 700q58 326 162 639.5t265.5 642t391.5 693.5z" />
    <glyph glyph-name="parenright" unicode=")" horiz-adv-x="1204" 
d="M393 -979l-397 176l12 25q278 500 434.5 915t233.5 854q69 396 69 746q0 452 -114 1003l-8 49l462 177q189 -695 189 -1274q0 -341 -62 -701q-57 -330 -159 -636.5t-263 -632.5t-397 -701z" />
    <glyph glyph-name="asterisk" unicode="*" horiz-adv-x="1548" 
d="M860 1450l66 365l-340 -185l-115 283l340 180l-279 172l213 291l275 -184l65 360h324l-66 -360l357 184l115 -270l-361 -193l295 -180l-209 -283l-291 185l-65 -365h-324z" />
    <glyph glyph-name="plus" unicode="+" 
d="M315 1647h828l147 823h332l-147 -823h831l-53 -324h-832l-147 -823h-332l148 823h-828z" />
    <glyph glyph-name="comma" unicode="," horiz-adv-x="1036" 
d="M164 0l119 684h708l-98 -557l-614 -750h-226l377 623h-266z" />
    <glyph glyph-name="hyphen" unicode="-" horiz-adv-x="1012" 
d="M143 811l90 532q211 -28 504 -28q279 0 508 28l-90 -532q-332 29 -520 29q-189 0 -492 -29z" />
    <glyph glyph-name="period" unicode="." horiz-adv-x="1036" 
d="M164 0l119 684h708l-119 -684h-708z" />
    <glyph glyph-name="slash" unicode="/" horiz-adv-x="1946" 
d="M-205 -545l2302 3277h328l-2306 -3277h-324z" />
    <glyph glyph-name="zero" unicode="0" horiz-adv-x="2429" 
d="M344 1352q51 294 177 548t308.5 440.5t405.5 287t461 100.5q268 0 471.5 -130t312.5 -367.5t109 -547.5q0 -166 -29 -331q-69 -393 -267 -709.5t-482 -494t-599 -177.5q-271 0 -475.5 130t-315 367t-110.5 548q0 140 33 336zM1081 1352q-49 -277 -49 -455
q0 -430 279 -430q356 0 512 881q45 253 45 450q0 434 -279 434q-352 0 -508 -880z" />
    <glyph glyph-name="one" unicode="1" horiz-adv-x="2429" 
d="M516 0l94 528h414l250 1430q-198 -73 -352 -78l69 401q156 22 284 76.5t237.5 146t211.5 228.5h398l-385 -2204h409l-94 -528h-1536z" />
    <glyph glyph-name="two" unicode="2" horiz-adv-x="2429" 
d="M2331 618l-107 -618h-2077l78 455l1127 852q451 340 495 598q0 331 -262 331q-328 0 -614 -471l-471 295q170 231 351.5 380t388 220.5t448.5 71.5q263 0 468.5 -85.5t317 -239t111.5 -351.5q0 -78 -9 -119q-44 -250 -216 -447t-432 -368t-830 -504h1233z" />
    <glyph glyph-name="three" unicode="3" horiz-adv-x="2429" 
d="M1012 1130l90 504q103 -12 155 -12q232 0 372.5 79.5t164.5 223.5q0 147 -78 225t-217 78q-273 0 -594 -274l-327 377q521 401 1073 401q252 0 451 -78.5t310 -218t111 -309.5q0 -30 -8 -94q-24 -142 -121.5 -266t-239.5 -197q-132 -74 -380 -139q243 -53 368 -132
q120 -71 187 -193t67 -261q0 -24 -8 -82q-40 -219 -213.5 -401t-439 -286t-564.5 -104q-231 0 -427 62t-344.5 181t-239.5 290l516 332q124 -213 244.5 -297t300.5 -84q172 0 297 89t149 230q0 365 -487 365q-37 0 -168 -9z" />
    <glyph glyph-name="four" unicode="4" horiz-adv-x="2429" 
d="M2544 1106l-86 -504h-439l-106 -602h-692l106 602h-1143l95 549l1433 1552h672l-279 -1597h439zM745 1106h668l156 885z" />
    <glyph glyph-name="five" unicode="5" horiz-adv-x="2429" 
d="M2585 2703l-148 -618h-1212l-111 -471q325 123 574 123q223 0 402.5 -92.5t279.5 -256t100 -360.5q0 -65 -12 -139q-34 -195 -146 -364t-282 -293t-384 -192.5t-450 -68.5q-218 0 -409.5 63.5t-337.5 184.5t-232 289l512 328q167 -365 541 -365q181 0 316.5 103.5
t162.5 265.5q0 184 -95.5 286.5t-256.5 102.5q-177 0 -439 -119l-430 266l328 1327h1729z" />
    <glyph glyph-name="six" unicode="6" horiz-adv-x="2429" 
d="M2589 2064l-594 -168q-10 133 -49 201q-81 139 -246 139q-116 0 -224 -75.5t-190 -214.5q-105 -169 -168 -480q194 90 343 129t308 39q208 0 364.5 -80t240.5 -225t84 -334q0 -78 -13 -155q-44 -250 -208.5 -448.5t-417.5 -309.5t-549 -111q-550 0 -795 385
q-151 247 -151 602q0 120 28 299q71 408 291 745.5t535 531.5t653 194q646 0 758 -664zM1036 1073l-12 -78q-20 -128 -20 -209q0 -188 78 -290.5t225 -102.5q150 0 284.5 119.5t161.5 278.5q0 181 -88.5 283t-239.5 102q-155 0 -389 -103z" />
    <glyph glyph-name="seven" unicode="7" horiz-adv-x="2429" 
d="M2646 2703l-66 -393q-193 -226 -430 -586q-201 -297 -346.5 -582t-242.5 -566.5t-152 -575.5h-844q116 319 271 598q141 265 303 518.5t348 498.5t389 474h-1262l152 614h1880z" />
    <glyph glyph-name="eight" unicode="8" horiz-adv-x="2429" 
d="M860 1274q-323 197 -323 504q0 54 12 123q43 244 203.5 432.5t412 291.5t551.5 103q265 0 465.5 -76t310 -214t109.5 -316q0 -66 -8 -103q-33 -192 -169.5 -323.5t-395.5 -216.5q191 -106 318.5 -232t127.5 -346q0 -57 -12 -119q-40 -238 -210 -424t-440 -286.5
t-595 -100.5q-315 0 -541 77.5t-342.5 217t-116.5 320.5q0 32 8 98q31 182 145 303t229.5 178t260.5 109zM1184 1114q-242 -149 -279 -332q0 -160 108 -245.5t294 -85.5q166 0 282.5 70.5t134.5 183.5q0 191 -262 294zM1683 1647q137 78 196.5 144.5t74.5 158.5
q0 144 -87.5 219.5t-244.5 75.5q-143 0 -244.5 -67.5t-120.5 -174.5q0 -119 91 -193.5t335 -162.5z" />
    <glyph glyph-name="nine" unicode="9" horiz-adv-x="2429" 
d="M307 639l594 168q32 -336 295 -336q133 0 254.5 91.5t200.5 252.5q75 158 135 418q-349 -160 -639 -160q-211 0 -371 79.5t-247 223.5t-87 332q0 76 13 147q34 193 135.5 354.5t260.5 278t360 178.5t427 62q222 0 396.5 -66.5t295.5 -193t183.5 -305t62.5 -406.5
q0 -159 -28 -319q-37 -217 -121 -422t-207.5 -379.5t-277.5 -304.5q-205 -172 -438.5 -266.5t-459.5 -94.5q-297 0 -497 180.5t-240 487.5zM1872 1630q29 156 29 279q0 397 -304 397q-153 0 -285 -116t-161 -277q-8 -50 -8 -70q0 -138 95.5 -226.5t244.5 -88.5
q141 0 389 102z" />
    <glyph glyph-name="colon" unicode=":" horiz-adv-x="1036" 
d="M164 0l119 684h708l-119 -684h-708zM385 1257l119 680h708l-118 -680h-709z" />
    <glyph glyph-name="semicolon" unicode=";" horiz-adv-x="1036" 
d="M164 0l119 684h712l-98 -557l-614 -750h-230l377 623h-266zM385 1257l119 680h708l-118 -680h-709z" />
    <glyph glyph-name="less" unicode="&#x3c;" 
d="M2367 2630l-118 -693l-1139 -557l938 -561l-115 -684l-1605 959l98 577z" />
    <glyph glyph-name="equal" unicode="=" 
d="M369 1954h1990l-53 -312h-1991zM262 1327h1991l-58 -311h-1990z" />
    <glyph glyph-name="greater" unicode="&#x3e;" 
d="M164 135l119 688l1138 561l-938 562l115 684l1606 -959l-99 -577z" />
    <glyph glyph-name="question" unicode="?" horiz-adv-x="2097" 
d="M954 987q22 226 115.5 395t219.5 302t238.5 252.5t127.5 209.5q0 176 -193 176q-136 0 -235.5 -82t-202.5 -274l-520 123q108 217 274 365t376.5 221t455.5 73q217 0 385 -64.5t260 -182.5t92 -269q0 -32 -8 -90q-30 -169 -125 -279.5t-279.5 -259t-292.5 -280.5
t-155 -336h-533zM696 0l119 684h709l-119 -684h-709z" />
    <glyph glyph-name="at" unicode="@" horiz-adv-x="3207" 
d="M2605 635h344q-124 -198 -328 -351.5t-456.5 -239t-509.5 -85.5q-261 0 -487 72t-397.5 217t-268 364t-96.5 506q0 165 28 332q56 320 223 590t408.5 459.5t529.5 291t580 101.5q323 0 589 -113.5t422 -336.5t156 -529q0 -97 -20 -225q-48 -274 -234 -511.5t-440 -377.5
t-485 -140q-230 0 -287 177l-25 -17q-149 -100 -246 -138t-208 -38q-182 0 -296 126t-114 321q0 56 12 118q32 180 134.5 368.5t259.5 348.5q297 311 622 311q257 0 365 -184l61 119h381l-532 -1069q-25 -54 -25 -90q0 -70 82 -70q65 0 217.5 101t286 266.5t168.5 357.5
q12 79 12 152q0 168 -68 311.5t-190.5 246.5t-292 159.5t-366.5 56.5q-237 0 -463 -93t-412.5 -256t-308 -368.5t-160.5 -421.5q-20 -102 -20 -237q0 -271 114 -486.5t334 -338t526 -122.5q535 0 881 365zM1913 1171l319 627q17 43 17 94q0 76 -44 120t-108 44
q-212 0 -434 -315q-72 -104 -141.5 -237.5t-117.5 -255.5t-65 -216q0 -213 148 -213q109 0 227.5 98t198.5 254z" />
    <glyph glyph-name="A" unicode="A" horiz-adv-x="2535" 
d="M-16 0l1339 2732h856l369 -2732h-779l-61 541h-860l-246 -541h-618zM1122 1114h533l-107 918z" />
    <glyph glyph-name="B" unicode="B" horiz-adv-x="2720" 
d="M258 0l479 2732h1360q333 0 529 -115q134 -76 204 -197.5t70 -269.5q0 -73 -8 -110q-73 -437 -643 -631q181 -62 278 -127q213 -138 213 -418q0 -61 -12 -123q-49 -265 -223 -449.5t-432 -242.5q-201 -49 -541 -49h-1274zM1098 520h295q166 0 230 6t134 31
q160 60 193 250q0 204 -107 258q-96 57 -323 57h-316zM1298 1655h398q198 0 296.5 66.5t125.5 220.5q0 150 -76.5 210t-251.5 60h-397z" />
    <glyph glyph-name="C" unicode="C" horiz-adv-x="2560" 
d="M2077 975l528 -127q-124 -282 -317.5 -483.5t-440.5 -307.5t-524 -106q-222 0 -452 94.5t-391 325t-161 608.5q0 133 33 336q52 296 175 559.5t315 468t447 319.5t562 115q284 0 500 -115t329 -301.5t113 -390.5q0 -49 -16 -147l-709 -37q-4 20 -4 69q0 377 -307 377
q-236 0 -386 -221.5t-232 -691.5q-33 -206 -33 -340q0 -239 92 -351t285 -112q169 0 290 80.5t178 165t126 213.5z" />
    <glyph glyph-name="D" unicode="D" horiz-adv-x="2720" 
d="M258 0l479 2732h942q504 0 836 -246q348 -267 348 -794q0 -165 -29 -324q-138 -809 -757 -1159q-349 -193 -688 -205q-54 -4 -193 -4h-938zM1389 2183l-287 -1646q299 2 489 84.5t299 266t162 501.5q21 113 21 237q0 376 -250 492q-136 65 -377 65h-57z" />
    <glyph glyph-name="E" unicode="E" horiz-adv-x="2351" 
d="M258 0l479 2732h1966l-102 -573h-1217l-86 -488h775l-99 -573h-774l-94 -525h1274l-99 -573h-2023z" />
    <glyph glyph-name="F" unicode="F" horiz-adv-x="2273" 
d="M258 0l479 2732h1975l-103 -573h-1225l-90 -512h787l-99 -574h-786l-188 -1073h-750z" />
    <glyph glyph-name="G" unicode="G" horiz-adv-x="2707" 
d="M1544 901l78 438h1114l-233 -1339h-222l-135 299q-199 -184 -395 -266t-432 -82q-270 0 -496.5 116t-360.5 353.5t-134 583.5q0 151 32 348q79 452 298.5 774.5t534 486.5t675.5 164q353 0 567.5 -142t302 -346.5t92.5 -416.5l-721 -111q0 471 -335 471q-476 0 -627 -868
q-41 -226 -41 -414q0 -235 85 -344.5t263 -109.5q250 0 353.5 124t150.5 281h-414z" />
    <glyph glyph-name="H" unicode="H" horiz-adv-x="2781" 
d="M258 0l479 2732h750l-184 -1053h761l185 1053h753l-479 -2732h-754l193 1106h-762l-192 -1106h-750z" />
    <glyph glyph-name="I" unicode="I" horiz-adv-x="1270" 
d="M258 0l479 2732h750l-479 -2732h-750z" />
    <glyph glyph-name="J" unicode="J" horiz-adv-x="1577" 
d="M750 954l311 1774h749l-356 -2028q-33 -182 -76 -282t-133 -193q-274 -274 -782 -274q-234 0 -471 69l160 611q139 -41 229 -41q160 0 248 87t121 277z" />
    <glyph glyph-name="K" unicode="K" horiz-adv-x="2646" 
d="M262 0l479 2732h750l-201 -1147l1000 1147h712l-811 -881l484 -1851h-799l-295 1192l-442 -475l-127 -717h-750z" />
    <glyph glyph-name="L" unicode="L" horiz-adv-x="2232" 
d="M262 0l479 2732h750l-381 -2159h1167l-98 -573h-1917z" />
    <glyph glyph-name="M" unicode="M" horiz-adv-x="3518" 
d="M262 0l479 2732h1082l172 -1356l671 1356h1074l-480 -2732h-749l344 1966l-959 -1966h-446l-258 1966l-344 -1966h-586z" />
    <glyph glyph-name="N" unicode="N" horiz-adv-x="2757" 
d="M258 0l479 2732h684l721 -1389l246 1389h590l-479 -2732h-590l-795 1548l-270 -1548h-586z" />
    <glyph glyph-name="O" unicode="O" horiz-adv-x="2699" 
d="M360 1364q58 326 192.5 589.5t331 448t439 280t516.5 95.5q336 0 563.5 -137.5t338 -376.5t110.5 -539q0 -163 -29 -311q-50 -298 -168 -562.5t-302.5 -466.5t-441 -317.5t-567.5 -115.5q-297 0 -527 117.5t-359 354t-129 581.5q0 150 32 360zM1147 1364
q-37 -225 -37 -389q0 -479 328 -479q169 0 286.5 117.5t190 319t121.5 476.5q37 228 37 348q0 475 -332 475q-240 0 -381 -226t-213 -642z" />
    <glyph glyph-name="P" unicode="P" horiz-adv-x="2671" 
d="M258 0l479 2732h1254q296 0 501.5 -77t310.5 -228t105 -363q0 -89 -16 -172q-39 -228 -174 -416.5t-330 -291.5q-158 -79 -331.5 -113.5t-422.5 -34.5h-446l-180 -1036h-750zM1393 2212l-111 -635h369q210 0 317 72.5t137 238.5q9 65 9 82q0 242 -353 242h-368z" />
    <glyph glyph-name="Q" unicode="Q" horiz-adv-x="2712" 
d="M2597 74l-94 -553h-95q-285 0 -471 121t-258 354q-200 -45 -344 -45q-316 0 -544 127t-347.5 365.5t-119.5 564.5q0 155 32 352q57 322 191.5 585.5t331 450.5t444.5 286t528 99q237 0 426.5 -71.5t319.5 -207.5t198 -330.5t68 -438.5q0 -157 -33 -357
q-122 -689 -569 -1077q55 -213 336 -225zM1143 1360q-41 -243 -41 -406q0 -454 336 -454q263 0 397 229t209 643q41 260 41 393q0 467 -344 467q-229 0 -372.5 -206.5t-225.5 -665.5z" />
    <glyph glyph-name="R" unicode="R" horiz-adv-x="2695" 
d="M258 0l479 2732h1196q375 0 611 -78q177 -58 279 -210.5t102 -354.5q0 -62 -13 -135q-51 -294 -270 -488q-127 -111 -352 -204l274 -1262h-840l-180 1130h-344l-196 -1130h-746zM1389 2212l-99 -570h443q160 0 264 76t125 211q0 150 -71 216.5t-220 66.5h-442z" />
    <glyph glyph-name="S" unicode="S" horiz-adv-x="2478" 
d="M180 467l529 364q76 -186 211 -269t362 -83q193 0 321 69t146 181q0 134 -96.5 174.5t-448.5 149t-516 252.5t-164 424q0 91 17 172q34 192 139.5 353.5t269.5 279t368 180.5t435 63q232 0 398 -51.5t266.5 -124.5t146 -131t82.5 -119l-500 -356q-95 141 -202.5 201.5
t-268.5 60.5q-105 0 -196 -30t-146.5 -82t-66.5 -117q0 -131 224.5 -204.5t454.5 -138t398 -208t168 -428.5q0 -99 -17 -185q-35 -204 -141.5 -373.5t-272 -291t-378 -185t-453.5 -63.5q-512 0 -748 160.5t-321 355.5z" />
    <glyph glyph-name="T" unicode="T" horiz-adv-x="2560" 
d="M905 0l377 2159h-741l102 573h2232l-102 -573h-741l-377 -2159h-750z" />
    <glyph glyph-name="U" unicode="U" horiz-adv-x="2699" 
d="M725 2732h750l-283 -1602q-33 -198 -33 -278q0 -79 29 -156q35 -83 123.5 -131.5t204.5 -48.5q132 0 254 65t180 169q67 111 110 380l283 1602h590l-303 -1724q-43 -250 -112.5 -400.5t-207.5 -292.5q-171 -174 -425.5 -269t-553.5 -95q-217 0 -394 46.5t-297.5 137
t-180.5 221.5q-70 147 -70 328q0 124 33 324z" />
    <glyph glyph-name="V" unicode="V" horiz-adv-x="2404" 
d="M844 0l-389 2732h749l209 -1831l860 1831h639l-1335 -2732h-733z" />
    <glyph glyph-name="W" unicode="W" horiz-adv-x="3609" 
d="M721 0l-270 2732h749l123 -1626l713 1626h635l155 -1606l701 1606h589l-1241 -2732h-647l-160 1602l-708 -1602h-639z" />
    <glyph glyph-name="X" unicode="X" horiz-adv-x="2503" 
d="M-29 0l1094 1389l-578 1343h832l295 -725l553 725h663l-970 -1233l671 -1499h-872l-361 852l-655 -852h-672z" />
    <glyph glyph-name="Y" unicode="Y" horiz-adv-x="2458" 
d="M868 0l205 1159l-635 1573h848l344 -930l680 930h668l-1147 -1507l-213 -1225h-750z" />
    <glyph glyph-name="Z" unicode="Z" horiz-adv-x="2408" 
d="M82 0l61 344l1504 1815h-1061l102 573h2118l-62 -340l-1548 -1819h1180l-99 -573h-2195z" />
    <glyph glyph-name="bracketleft" unicode="[" horiz-adv-x="1208" 
d="M717 2867h856l-62 -360h-356l-508 -2917h357l-66 -356h-856z" />
    <glyph glyph-name="backslash" unicode="\" horiz-adv-x="1946" 
d="M1962 -545h-324l-1159 3277h328z" />
    <glyph glyph-name="bracketright" unicode="]" horiz-adv-x="1208" 
d="M856 -766h-856l66 356h356l508 2917h-357l62 360h856z" />
    <glyph glyph-name="asciicircum" unicode="^" 
d="M901 1409h-610l831 1339h766l365 -1339h-611l-221 872z" />
    <glyph glyph-name="underscore" unicode="_" 
d="M-49 -217h2072l-73 -406h-2073z" />
    <glyph glyph-name="grave" unicode="`" 
d="M1720 2171h-393l-393 672h655z" />
    <glyph glyph-name="a" unicode="a" horiz-adv-x="2146" 
d="M2154 1352l-167 -963q-29 -219 -29 -246q0 -86 8 -143h-635q0 78 12 205q-347 -246 -659 -246q-222 0 -352.5 118t-130.5 312q0 34 8 98q61 351 394.5 534t912.5 183l28 148q0 241 -225 241q-239 0 -328 -241l-520 131q57 118 148 210t214 155.5t274.5 96.5t326.5 33
q372 0 552.5 -112t180.5 -363q0 -74 -13 -151zM1462 901h-49q-140 0 -260.5 -43t-198.5 -119.5t-94 -169.5q0 -114 49.5 -177.5t134.5 -63.5q141 0 340 127z" />
    <glyph glyph-name="b" unicode="b" horiz-adv-x="2208" 
d="M217 0l479 2744h635l-180 -1036q319 274 598 274q260 0 404.5 -186.5t144.5 -517.5q0 -153 -29 -299q-40 -231 -126.5 -419.5t-212.5 -323.5t-284.5 -206t-334.5 -71q-368 0 -516 340l-164 -295zM1098 1405l-119 -668q-12 -79 -12 -139q0 -274 213 -274q157 0 258 157
t155 486q33 179 33 295q0 315 -213 315q-150 0 -315 -172z" />
    <glyph glyph-name="c" unicode="c" horiz-adv-x="1974" 
d="M1585 688l414 -82q-112 -217 -254.5 -362.5t-315.5 -215t-380 -69.5q-245 0 -426 94.5t-277 269t-96 406.5q0 86 20 209q40 224 143.5 414.5t258.5 332t346 217.5t399 76q218 0 376 -81t241.5 -234.5t83.5 -364.5l-582 -24q8 58 8 82q0 205 -188 205q-310 0 -414 -598
q-24 -136 -24 -242q0 -348 274 -348q251 0 393 315z" />
    <glyph glyph-name="d" unicode="d" horiz-adv-x="2216" 
d="M1364 0l41 229q-283 -270 -590 -270q-271 0 -420 180t-149 504q0 130 24 279q90 486 332 753q127 143 286 223t316 80q137 0 242 -55t221 -186l176 1007h635l-479 -2744h-635zM1614 1421q-94 164 -254 164q-144 0 -249.5 -144t-152.5 -405q-32 -210 -32 -336
q0 -344 213 -344q129 0 319 172z" />
    <glyph glyph-name="e" unicode="e" horiz-adv-x="2105" 
d="M1667 651l373 -196q-366 -496 -942 -496q-255 0 -446 96.5t-294.5 273.5t-103.5 408q0 104 16 197q50 285 222 525.5t419.5 379.5t509.5 139q229 0 400.5 -102t264.5 -287.5t93 -421.5q0 -95 -20 -225l-17 -94h-1216q-8 -82 -8 -111q0 -344 327 -344q248 0 422 258z
M991 1184h582q8 45 8 123q0 278 -217 278q-132 0 -235 -111t-138 -290z" />
    <glyph glyph-name="f" unicode="f" horiz-adv-x="1352" 
d="M356 0l262 1499l-303 -4l78 447l312 -13q3 51 11 148.5t21 179.5q94 524 705 524q160 0 373 -28l-78 -426q-49 4 -111 4q-124 0 -181.5 -50.5t-80.5 -183.5l-29 -164l332 4l-78 -450l-332 20l-262 -1507h-639z" />
    <glyph glyph-name="g" unicode="g" horiz-adv-x="2224" 
d="M2560 1999l-78 -463q-107 127 -221 127q-53 0 -139 -49q6 -28 13.5 -55.5t12.5 -51.5t6 -41q0 -21 -8 -77q-29 -171 -159 -311t-331.5 -218t-434.5 -78q-57 0 -126 5t-104 8q-62 0 -107.5 -30t-56.5 -77q0 -66 40.5 -93t140.5 -30l295 -12q38 0 110 -2t111 -2
q295 -12 452.5 -127.5t157.5 -319.5q0 -24 -8 -90q-56 -301 -346 -457.5t-797 -156.5q-995 0 -995 369q29 155 151 215.5t316 111.5q-139 54 -194.5 118.5t-55.5 184.5q48 287 545 459q-353 139 -353 422q0 31 9 90q33 185 163 323t340 212.5t471 74.5q222 0 369.5 -45.5
t290.5 -158.5q213 219 520 225zM979 1384q0 -145 65 -224t177 -79q126 0 228.5 88.5t123.5 214.5q0 140 -65 217.5t-177 77.5q-123 0 -226.5 -86t-125.5 -209zM1233 4l-475 33q-219 0 -238 -139q0 -95 118.5 -136t369.5 -41q266 0 389.5 37t138.5 123q0 62 -61.5 86.5
t-241.5 36.5z" />
    <glyph glyph-name="h" unicode="h" horiz-adv-x="2220" 
d="M221 0l479 2744h635l-200 -1151q359 385 708 385q124 0 221.5 -54t147.5 -150q49 -98 49 -222q0 -87 -16 -180l-242 -1372h-635l209 1200q12 73 12 131q0 193 -159 193q-174 0 -345 -209l-229 -1315h-635z" />
    <glyph glyph-name="i" unicode="i" horiz-adv-x="1073" 
d="M217 0l340 1937h635l-340 -1937h-635zM598 2171l98 573h635l-98 -573h-635z" />
    <glyph glyph-name="j" unicode="j" horiz-adv-x="1106" 
d="M1221 1937l-316 -1822q-59 -329 -271.5 -508.5t-543.5 -179.5q-111 0 -229 20l86 471l61 -4q118 0 193 82q38 47 55 100t43 207l287 1634h635zM627 2171l98 573h635l-98 -573h-635z" />
    <glyph glyph-name="k" unicode="k" horiz-adv-x="2204" 
d="M217 0l479 2744h635l-282 -1609l823 802h573l-622 -589l385 -1348h-738l-200 852l-324 -303l-94 -549h-635z" />
    <glyph glyph-name="l" unicode="l" horiz-adv-x="1073" 
d="M217 0l479 2744h635l-479 -2744h-635z" />
    <glyph glyph-name="m" unicode="m" horiz-adv-x="3346" 
d="M221 0l340 1937h635l-57 -323q195 192 357.5 278t330.5 86q173 0 270.5 -84.5t147.5 -275.5q366 360 716 360q205 0 315.5 -110.5t110.5 -311.5q0 -67 -12 -147l-246 -1409h-635l205 1176q17 113 17 143q0 197 -160 197q-169 0 -332 -181l-233 -1335h-635l200 1147
q17 80 17 164q0 196 -148 196q-152 0 -335 -172l-234 -1335h-635z" />
    <glyph glyph-name="n" unicode="n" horiz-adv-x="2216" 
d="M217 0l340 1937h635l-57 -315q368 356 696 356q133 0 235 -55t154 -154q41 -75 41 -176q0 -79 -25 -217l-241 -1376h-635l205 1167q20 136 20 238q-25 123 -147 123q-184 0 -357 -209l-229 -1319h-635z" />
    <glyph glyph-name="o" unicode="o" horiz-adv-x="2122" 
d="M1405 1978q186 0 332 -54.5t250.5 -158.5t158.5 -248.5t54 -320.5q0 -88 -21 -225q-37 -223 -138.5 -411t-252 -321.5t-340 -206.5t-399.5 -73q-244 0 -423.5 97t-275.5 276t-96 418q0 91 20 221q53 295 213 524.5t399.5 356t518.5 126.5zM1335 1565q-286 0 -393 -615
q-24 -147 -24 -258q0 -315 212 -315q142 0 234.5 148.5t146.5 461.5q25 151 25 266q-6 312 -201 312z" />
    <glyph glyph-name="p" unicode="p" horiz-adv-x="2195" 
d="M119 -573l438 2510h635l-45 -241q330 286 602 286q260 0 400.5 -176.5t140.5 -498.5q0 -128 -33 -324q-85 -491 -303 -741q-114 -135 -268 -209t-314 -74q-297 0 -479 266l-139 -798h-635zM942 516q106 -160 258 -160q149 0 243.5 161t158.5 527q20 130 20 209
q0 328 -221 328q-131 0 -303 -172z" />
    <glyph glyph-name="q" unicode="q" horiz-adv-x="2204" 
d="M1249 -573l140 806q-165 -143 -311.5 -208.5t-299.5 -65.5q-167 0 -288.5 79.5t-184.5 231t-63 357.5q0 129 24 282q47 266 145 476t236 339q266 254 590 254q182 0 305.5 -85t214.5 -271l164 315h401l-438 -2510h-635zM1442 532l119 697q8 37 8 106q0 129 -62 204
t-172 75q-273 0 -377 -594q-40 -217 -40 -369t50 -219t158 -67q165 0 316 167z" />
    <glyph glyph-name="r" unicode="r" horiz-adv-x="1630" 
d="M221 0l340 1937h635l-70 -397q362 418 795 418l-111 -631q-164 66 -303 66q-299 0 -446 -222l-205 -1171h-635z" />
    <glyph glyph-name="s" unicode="s" horiz-adv-x="1933" 
d="M152 401l426 209q105 -274 458 -274q146 0 235.5 47t104.5 129q0 99 -78 127.5t-327 81t-369 127.5q-209 133 -209 373q0 32 8 90q34 191 166.5 343.5t334.5 238t433 85.5q567 0 721 -426l-409 -200q-83 245 -377 245q-120 0 -201.5 -44t-93.5 -115q0 -77 72 -111
t242 -64.5t287 -65.5t210 -112q180 -136 180 -372q0 -37 -8 -103q-34 -190 -167.5 -339t-342.5 -230.5t-461 -81.5q-697 0 -835 442z" />
    <glyph glyph-name="t" unicode="t" horiz-adv-x="1565" 
d="M475 508l172 987l-344 -4l78 451l352 -13l176 668h574l-119 -668l414 13l-78 -451l-414 4l-127 -725q-24 -140 -24 -180q0 -89 56.5 -128.5t205.5 -39.5q73 0 127 8l-74 -430q-162 -33 -356 -33q-356 0 -497.5 83.5t-141.5 277.5q0 70 20 180z" />
    <glyph glyph-name="u" unicode="u" horiz-adv-x="2228" 
d="M2351 1937l-340 -1937h-635l58 319q-373 -360 -717 -360q-414 0 -414 414q0 97 16 184l242 1380h635l-201 -1138q-20 -131 -20 -262q13 -127 143 -127q175 0 365 208l233 1319h635z" />
    <glyph glyph-name="v" unicode="v" horiz-adv-x="1896" 
d="M688 0l-377 1937h680l197 -1081l581 1081h492l-1098 -1937h-475z" />
    <glyph glyph-name="w" unicode="w" horiz-adv-x="2736" 
d="M573 0l-262 1937h639l140 -987l491 987h459l123 -987l479 987h463l-987 -1937h-459l-127 995l-488 -995h-471z" />
    <glyph glyph-name="x" unicode="x" horiz-adv-x="2077" 
d="M0 0l852 967l-463 970h741l197 -483l418 483h569l-766 -856l529 -1081h-746l-262 598l-508 -598h-561z" />
    <glyph glyph-name="y" unicode="y" horiz-adv-x="1876" 
d="M2245 1937l-1012 -1822q-157 -280 -295.5 -429t-309 -208.5t-431.5 -59.5q-111 0 -197 9l82 475q124 -29 225 -29q357 0 357 229q0 41 -13 95l-336 1740h680l193 -1060l569 1060h488z" />
    <glyph glyph-name="z" unicode="z" horiz-adv-x="1851" 
d="M82 0l53 303l1098 1200h-791l78 434h1589l-57 -323l-1069 -1176h864l-78 -438h-1687z" />
    <glyph glyph-name="braceleft" unicode="{" horiz-adv-x="1790" 
d="M1069 987q172 -129 172 -319q0 -92 -16 -185l-74 -413q-12 -61 -12 -107q0 -125 91 -175t322 -50h66l-90 -520l-119 -4q-94 0 -163 -2.5t-99 -2.5q-232 0 -366.5 38t-195.5 123.5t-61 228.5q0 80 21 204l98 562q12 67 12 127q0 191 -180 233l98 557q240 54 287 332
l98 573q40 231 134.5 356.5t259.5 175.5t438 50q26 0 112 -2t130 -2l114 -4l-98 -557h-61q-199 0 -298 -26t-148 -95.5t-75 -210.5l-65 -381q-36 -201 -105.5 -306t-226.5 -198z" />
    <glyph glyph-name="bar" unicode="|" 
d="M1155 2728h696l-598 -3412h-696z" />
    <glyph glyph-name="braceright" unicode="}" horiz-adv-x="1790" 
d="M1143 987q-90 63 -131 135.5t-41 180.5q0 65 20 188l70 414q12 61 12 110q0 123 -90.5 172t-318.5 49h-66l90 521l115 4q76 0 154 2t108 2q232 0 368 -38t197.5 -123.5t61.5 -231.5q0 -71 -21 -201l-98 -561q-12 -73 -12 -131q0 -189 176 -230l-95 -557
q-125 -27 -193.5 -105.5t-96.5 -226.5l-99 -573q-40 -231 -134.5 -356.5t-259 -175.5t-437.5 -50q-24 0 -111 2t-131 2l-114 5l98 557h61q198 0 299 26t149.5 94.5t71.5 210.5l70 381q23 137 59.5 225t97.5 151t171 128z" />
    <glyph glyph-name="asciitilde" unicode="~" 
d="M610 1327l-282 279q334 585 725 585q112 0 189 -29t268 -112.5t259 -83.5q147 0 312 238l286 -279q-182 -314 -352.5 -448t-392.5 -134q-82 0 -163 27t-206.5 84.5t-198 84t-136.5 26.5q-142 0 -308 -238z" />
    <glyph glyph-name="nonbreakingspace" unicode="&#xa0;" horiz-adv-x="1217" 
 />
    <glyph glyph-name="exclamdown" unicode="&#xa1;" horiz-adv-x="1176" 
d="M963 954l-119 -1745h-795l496 1745h418zM1282 1942l-119 -685h-708l118 685h709z" />
    <glyph glyph-name="cent" unicode="&#xa2;" horiz-adv-x="2429" 
d="M1516 381l-41 -238h-201l41 226q-240 16 -389 98q-175 102 -268 275t-93 397q0 89 21 209q35 200 124 378t226.5 319t300.5 224q181 97 430 119l33 176h201l-33 -184q559 -93 565 -672l-582 -25q4 33 4 86q0 104 -65 164l-201 -1138q119 41 185 106.5t127 196.5l409 -82
q-102 -198 -216.5 -328.5t-255 -205t-322.5 -101.5zM1593 1962q-246 -78 -336 -590q-24 -141 -24 -246q0 -257 156 -323z" />
    <glyph glyph-name="sterling" unicode="&#xa3;" horiz-adv-x="2429" 
d="M2216 1683l-82 -471h-516q0 -127 -8 -184q-31 -176 -135 -319q204 -123 401 -123q122 0 207 38.5t170 129.5h303q-61 -243 -183.5 -426t-288.5 -282t-351 -99q-152 0 -281 66.5t-285 224.5q-179 -155 -322 -219t-317 -64q-136 0 -240.5 49.5t-161 138.5t-56.5 205
q0 30 8 86q22 136 118 253t239 186t294 69q103 0 287 -37q0 217 -25 307h-610l82 471h467q-12 123 -12 209q0 108 16 185q38 216 183 394t363.5 279t465.5 101q197 0 370.5 -72t276.5 -194q91 -108 160 -324l-607 -188q-37 262 -270 262q-125 0 -211.5 -82.5t-112.5 -224.5
q-12 -61 -12 -115q0 -77 29 -230h647zM934 508q-136 98 -250 98q-80 0 -148.5 -50.5t-80.5 -117.5q0 -131 135 -131q94 0 187.5 54t156.5 147z" />
    <glyph glyph-name="currency" unicode="&#xa4;" horiz-adv-x="2953" 
d="M233 438l492 422q-66 205 -66 369q0 72 13 160q48 254 250 540l-353 426l418 357l361 -439q174 83 295.5 115.5t257.5 32.5q140 0 246.5 -30.5t248.5 -113.5l512 430l287 -356l-488 -418q78 -195 78 -372q0 -94 -16 -177q-24 -135 -76.5 -253t-157.5 -271l344 -418
l-413 -356l-340 418q-292 -164 -565 -164q-278 0 -549 160l-488 -414zM1802 1839q-121 0 -235 -60.5t-192.5 -164t-100.5 -225.5q-8 -50 -8 -74q0 -105 48 -191.5t134 -136t194 -49.5q188 0 343.5 133.5t185.5 321.5q8 56 8 82q0 155 -106.5 259.5t-270.5 104.5z" />
    <glyph glyph-name="yen" unicode="&#xa5;" horiz-adv-x="2429" 
d="M979 557h-528l69 414h529l36 188l-49 135h-458l73 414h238l-357 1024h795l262 -930l598 930h668l-721 -1024h270l-73 -414h-492l-57 -135l-37 -188h528l-69 -414h-529l-98 -557h-696z" />
    <glyph glyph-name="brokenbar" unicode="&#xa6;" 
d="M1155 2728h696l-258 -1458h-696zM786 627h697l-230 -1311h-696z" />
    <glyph glyph-name="section" unicode="&#xa7;" horiz-adv-x="2429" 
d="M2437 2093h-524l16 53q0 217 -278 217q-253 0 -279 -143q0 -71 58.5 -119.5t228.5 -130.5l311 -147q241 -111 350 -242.5t109 -306.5q0 -74 -8 -111q-65 -374 -500 -536q193 -150 193 -394q0 -19 -9 -102q-35 -202 -176.5 -365t-358.5 -253.5t-464 -90.5
q-217 0 -390.5 65.5t-273.5 184.5q-123 142 -123 353q0 89 17 188l8 53h516l-12 -65q0 -165 84 -252.5t231 -87.5q129 0 217.5 60.5t106.5 164.5q0 96 -54 158t-200 137l-402 209q-183 93 -298 211t-115 317q0 70 8 107q73 405 553 553q-193 150 -193 340q0 21 9 86
q32 179 158.5 315t328.5 209.5t451 73.5q222 0 387 -65t253.5 -187t88.5 -281q0 -74 -8 -110zM1606 868q228 59 258 222q0 81 -39 126t-146 99l-155 82q-36 20 -75 41t-73.5 39.5t-72.5 42.5q-279 -19 -316 -201q0 -77 40.5 -127t148.5 -102z" />
    <glyph glyph-name="dieresis" unicode="&#xa8;" 
d="M692 2183l103 590h589l-102 -590h-590zM1528 2183l102 590h594l-102 -590h-594z" />
    <glyph glyph-name="copyright" unicode="&#xa9;" horiz-adv-x="3138" 
d="M2060 2789q339 0 610 -153.5t422.5 -423t151.5 -598.5q0 -142 -20 -250q-50 -288 -204.5 -547.5t-385.5 -457t-507 -307t-562 -109.5q-344 0 -617.5 155t-426 426.5t-152.5 601.5q0 105 20 242q68 385 316.5 712.5t609 518t745.5 190.5zM2011 2499q-299 0 -580.5 -152
t-476.5 -413t-249 -566q-17 -85 -17 -197q0 -262 117.5 -477t330 -338t478.5 -123q298 0 577.5 152.5t472.5 413.5t244 565q17 99 17 205q0 260 -116.5 473.5t-325 335t-472.5 121.5zM2097 1155l316 -74q-111 -249 -309.5 -386.5t-448.5 -137.5q-133 0 -271 54.5
t-234.5 189.5t-96.5 354q0 80 20 197q41 234 156.5 427.5t302 309t426.5 115.5q169 0 298.5 -66t198 -174t68.5 -227q0 -48 -12 -90l-418 -21q0 262 -184 262q-142 0 -232.5 -130t-136.5 -402q-20 -123 -20 -197q0 -274 229 -274q213 0 348 270z" />
    <glyph glyph-name="ordfeminine" unicode="&#xaa;" horiz-adv-x="1602" 
d="M1061 2384l-324 78q75 153 212 222t358 69q233 0 335.5 -61.5t102.5 -201.5q0 -28 -8 -94l-90 -532q-17 -86 -17 -123q0 -3 8 -103h-393q0 54 4 103q-184 -123 -368 -123q-287 0 -287 299q35 199 228.5 304.5t525.5 105.5l12 69q0 123 -115 123q-139 0 -184 -135z
M1315 2138h-21q-117 0 -201 -49t-98 -123q0 -123 95 -123q79 0 188 66zM1708 1352l-25 -135h-1331l25 135h1331z" />
    <glyph glyph-name="guillemotleft" unicode="&#xab;" horiz-adv-x="1724" 
d="M1700 483h-533l-151 570l381 610h508l-369 -610zM954 483h-532l-156 570l381 610h512l-373 -610z" />
    <glyph glyph-name="logicalnot" unicode="&#xac;" 
d="M1233 0l106 598h-1097l102 606h1774l-209 -1204h-676z" />
    <glyph glyph-name="registered" unicode="&#xae;" horiz-adv-x="3138" 
d="M2060 2789q339 0 610 -153.5t422.5 -423t151.5 -598.5q0 -142 -20 -250q-50 -288 -204.5 -547.5t-385.5 -457t-507 -307t-562 -109.5q-344 0 -617.5 155t-426 426.5t-152.5 601.5q0 105 20 242q68 385 316.5 712.5t609 518t745.5 190.5zM2011 2499q-298 0 -580 -151.5
t-476.5 -412t-249.5 -567.5q-17 -85 -17 -197q0 -262 117.5 -477t328.5 -338t476 -123q299 0 579 152t473.5 413t245.5 566q17 99 17 205q0 260 -116.5 473.5t-325 335t-472.5 121.5zM1061 594l274 1565h664q211 0 336 -45q98 -30 155.5 -117t57.5 -203q0 -24 -8 -82
q-26 -162 -156 -278q-70 -64 -193 -115l148 -725h-467l-94 647h-189l-114 -647h-414zM1696 1860l-54 -324h246q181 0 213 164q0 160 -159 160h-246z" />
    <glyph glyph-name="macron" unicode="&#xaf;" 
d="M717 2298l69 397h1418l-70 -397h-1417z" />
    <glyph glyph-name="degree" unicode="&#xb0;" 
d="M2052 2101q-23 -135 -96 -257t-181.5 -213.5t-238.5 -142t-262 -50.5q-158 0 -284.5 70.5t-197.5 193.5t-71 276q0 57 12 119q31 180 146 332t283.5 240t348.5 88q159 0 284.5 -72t195 -197t69.5 -276q0 -74 -8 -111zM1778 2093q8 50 8 74q0 142 -92 237t-236 95
q-158 0 -294.5 -119.5t-164.5 -282.5q-8 -48 -8 -74q0 -137 95 -230t237 -93q104 0 202.5 53.5t166.5 144t86 195.5z" />
    <glyph glyph-name="plusminus" unicode="&#xb1;" 
d="M319 1659h828l143 823h332l-143 -823h831l-57 -320h-832l-139 -790h-332l140 790h-828zM94 381h1991l-53 -320h-1991z" />
    <glyph glyph-name="twosuperior" unicode="&#xb2;" horiz-adv-x="1610" 
d="M1720 1487l-69 -393h-1340l49 286l713 508q276 202 299 344q0 181 -160 181q-198 0 -372 -283l-324 188q108 144 226 236.5t251 135t289 42.5q171 0 303 -52t205.5 -146t73.5 -212q0 -26 -9 -69q-46 -267 -413 -500q-89 -56 -463 -266h741z" />
    <glyph glyph-name="threesuperior" unicode="&#xb3;" horiz-adv-x="1610" 
d="M848 1761l57 324q53 -4 115 -4q288 0 319 160q0 167 -176 167q-168 0 -372 -163l-230 237q346 250 696 250q253 0 407.5 -114t154.5 -312q-51 -259 -418 -352q170 -39 261 -125.5t91 -206.5q0 -24 -8 -66q-22 -135 -132.5 -243.5t-281.5 -172t-364 -63.5
q-224 0 -393.5 86.5t-262.5 245.5l348 209q84 -130 158 -179.5t187 -49.5q102 0 176.5 49t89.5 123q0 204 -303 204q-62 0 -119 -4z" />
    <glyph glyph-name="acute" unicode="&#xb4;" 
d="M1090 2171l360 672h655l-622 -672h-393z" />
    <glyph glyph-name="mu" unicode="&#xb5;" horiz-adv-x="2228" 
d="M98 -700l463 2637h635l-201 -1138q-20 -131 -20 -262q13 -127 143 -127q175 0 365 208l233 1319h635l-340 -1937h-635l58 319q-306 -299 -586 -348l-119 -671h-631z" />
    <glyph glyph-name="paragraph" unicode="&#xb6;" horiz-adv-x="2449" 
d="M930 -377l295 1692h-54q-283 0 -448.5 152.5t-165.5 404.5q0 65 12 139q38 207 153.5 364t289.5 242q241 115 630 115h1102l-45 -242h-200l-500 -2867h-377l500 2867h-312l-499 -2867h-381z" />
    <glyph glyph-name="cedilla" unicode="&#xb8;" 
d="M553 -766l299 569h479l-385 -569h-393z" />
    <glyph glyph-name="onesuperior" unicode="&#xb9;" horiz-adv-x="1610" 
d="M528 1094l58 340h262l143 811q-108 -39 -221 -45l45 266q153 18 262 80t205 186h270l-229 -1298h258l-57 -340h-996z" />
    <glyph glyph-name="ordmasculine" unicode="&#xba;" horiz-adv-x="1602" 
d="M1286 2753q143 0 251.5 -54.5t166 -155.5t57.5 -233q0 -61 -12 -123q-28 -169 -121.5 -298t-235 -200t-307.5 -71q-217 0 -344 122t-127 328q0 78 9 119q29 163 124 293.5t234 201.5t305 71zM1245 2503q-153 0 -213 -328q-12 -79 -12 -135q0 -172 115 -172q149 0 208 327
q13 78 13 136q0 172 -111 172zM1708 1352l-25 -135h-1331l25 135h1331z" />
    <glyph glyph-name="guillemotright" unicode="&#xbb;" horiz-adv-x="1724" 
d="M197 483l364 570l-160 610h508l172 -610l-352 -570h-532zM946 483l365 570l-160 610h508l168 -610l-348 -570h-533z" />
    <glyph glyph-name="onequarter" unicode="&#xbc;" horiz-adv-x="3817" 
d="M528 1094l58 336h262l143 811q-111 -36 -221 -41l45 262q154 21 262.5 83.5t204.5 186.5h270l-229 -1302h258l-57 -336h-996zM877 0l2207 2732h340l-2220 -2732h-327zM3863 680l-58 -324h-274l-62 -356h-463l62 356h-721l61 340l902 926h442l-164 -942h275zM2744 680h381
l82 467z" />
    <glyph glyph-name="onehalf" unicode="&#xbd;" horiz-adv-x="3817" 
d="M528 1094l58 336h262l143 811q-111 -36 -221 -41l45 262q154 21 262.5 83.5t204.5 186.5h270l-229 -1302h258l-57 -336h-996zM877 0l2207 2732h340l-2220 -2732h-327zM3736 393l-70 -393h-1339l49 287l712 508q273 195 303 344q0 180 -163 180q-199 0 -373 -283l-324 189
q169 218 349.5 315.5t416.5 97.5q268 0 423 -125.5t155 -353.5q-47 -264 -418 -500q-87 -56 -463 -266h742z" />
    <glyph glyph-name="threequarters" unicode="&#xbe;" horiz-adv-x="3817" 
d="M844 1761l57 324q106 -8 115 -8q287 0 319 164q0 167 -176 167q-169 0 -373 -167l-229 241q346 250 696 250q253 0 407.5 -114t154.5 -312q-52 -265 -418 -352q170 -39 261 -125.5t91 -206.5q0 -24 -8 -66q-22 -135 -132.5 -243.5t-281.5 -172t-364 -63.5
q-226 0 -394.5 85t-261.5 247l348 209q83 -131 156.5 -180t187.5 -49q103 0 177.5 48.5t89.5 123.5q0 204 -303 204q-14 0 -51 -2t-68 -2zM872 0l2208 2732h340l-2220 -2732h-328zM3858 680l-57 -324h-274l-62 -356h-463l62 356h-721l61 340l901 926h443l-164 -942h274z
M2740 680h381l82 467z" />
    <glyph glyph-name="questiondown" unicode="&#xbf;" horiz-adv-x="2097" 
d="M1483 950q-22 -222 -116.5 -393.5t-221.5 -305t-236.5 -251t-126.5 -209.5q0 -176 193 -176q134 0 236 83t202 273l520 -123q-107 -216 -274 -364.5t-379.5 -221.5t-456.5 -73q-331 0 -532 143t-201 373q0 34 8 90q31 174 125 282t280 257.5t293.5 280t153.5 335.5h533z
M1741 1937l-119 -684h-709l119 684h709z" />
    <glyph glyph-name="Agrave" unicode="&#xc0;" horiz-adv-x="2535" 
d="M-16 0l1339 2732h856l369 -2732h-779l-61 541h-860l-246 -541h-618zM1122 1114h533l-107 918zM2035 2912h-393l-393 672h655z" />
    <glyph glyph-name="Aacute" unicode="&#xc1;" horiz-adv-x="2535" 
d="M-16 0l1339 2732h856l369 -2732h-779l-61 541h-860l-246 -541h-618zM1122 1114h533l-107 918zM1491 2912l360 672h655l-622 -672h-393z" />
    <glyph glyph-name="Acircumflex" unicode="&#xc2;" horiz-adv-x="2535" 
d="M-16 0l1339 2732h856l369 -2732h-779l-61 541h-860l-246 -541h-618zM1122 1114h533l-107 918zM1020 2888l557 610h553l393 -610h-544l-217 336l-316 -336h-426z" />
    <glyph glyph-name="Atilde" unicode="&#xc3;" horiz-adv-x="2535" 
d="M-16 0l1339 2732h856l369 -2732h-779l-61 541h-860l-246 -541h-618zM1122 1114h533l-107 918zM2270 3461h348q-117 -496 -557 -496q-64 0 -135 17.5t-165 52t-145 50.5t-100 16q-52 0 -77.5 -24t-57.5 -103h-340q64 252 217.5 384t380.5 132q94 0 169.5 -26.5t182.5 -74
t143 -47.5q69 0 136 119z" />
    <glyph glyph-name="Adieresis" unicode="&#xc4;" horiz-adv-x="2535" 
d="M-16 0l1339 2732h856l369 -2732h-779l-61 541h-860l-246 -541h-618zM1122 1114h533l-107 918zM1065 2941l103 590h589l-102 -590h-590zM1901 2941l102 590h594l-102 -590h-594z" />
    <glyph glyph-name="Aring" unicode="&#xc5;" horiz-adv-x="2535" 
d="M-16 0l1339 2732h856l369 -2732h-779l-61 541h-860l-246 -541h-618zM1122 1114h533l-107 918zM1385 3371q22 126 104 235t201 172.5t248 63.5q172 0 284.5 -112.5t112.5 -280.5q0 -20 -8 -78q-22 -129 -104 -236.5t-202.5 -171t-246.5 -63.5q-174 0 -285.5 110.5
t-111.5 278.5q0 24 8 82zM1647 3371q0 -102 47.5 -159.5t124.5 -57.5q86 0 158.5 63.5t87.5 153.5q0 104 -46.5 160.5t-125.5 56.5q-87 0 -159 -64t-87 -153z" />
    <glyph glyph-name="AE" unicode="&#xc6;" horiz-adv-x="3510" 
d="M29 0l1323 2732h2502l-102 -573h-1475l70 -508h958l-102 -574h-770l66 -528h1040l-94 -549h-1639l-61 549h-848l-246 -549h-622zM1163 1122h520l-110 885z" />
    <glyph glyph-name="Ccedilla" unicode="&#xc7;" horiz-adv-x="2560" 
d="M786 -766l299 569h480l-385 -569h-394zM2077 975l528 -127q-124 -282 -317.5 -483.5t-440.5 -307.5t-524 -106q-222 0 -452 94.5t-391 325t-161 608.5q0 133 33 336q52 296 175 559.5t315 468t447 319.5t562 115q284 0 500 -115t329 -301.5t113 -390.5q0 -49 -16 -147
l-709 -37q-4 20 -4 69q0 377 -307 377q-236 0 -386 -221.5t-232 -691.5q-33 -206 -33 -340q0 -239 92 -351t285 -112q169 0 290 80.5t178 165t126 213.5z" />
    <glyph glyph-name="Egrave" unicode="&#xc8;" horiz-adv-x="2351" 
d="M258 0l479 2732h1966l-102 -573h-1217l-86 -488h775l-99 -573h-774l-94 -525h1274l-99 -573h-2023zM1945 2912h-393l-393 672h655z" />
    <glyph glyph-name="Eacute" unicode="&#xc9;" horiz-adv-x="2351" 
d="M258 0l479 2732h1966l-102 -573h-1217l-86 -488h775l-99 -573h-774l-94 -525h1274l-99 -573h-2023zM1397 2912l360 672h655l-622 -672h-393z" />
    <glyph glyph-name="Ecircumflex" unicode="&#xca;" horiz-adv-x="2351" 
d="M258 0l479 2732h1966l-102 -573h-1217l-86 -488h775l-99 -573h-774l-94 -525h1274l-99 -573h-2023zM925 2888l557 610h553l393 -610h-544l-217 336l-316 -336h-426z" />
    <glyph glyph-name="Edieresis" unicode="&#xcb;" horiz-adv-x="2351" 
d="M258 0l479 2732h1966l-102 -573h-1217l-86 -488h775l-99 -573h-774l-94 -525h1274l-99 -573h-2023zM971 2941l103 590h589l-102 -590h-590zM1807 2941l102 590h594l-102 -590h-594z" />
    <glyph glyph-name="Igrave" unicode="&#xcc;" horiz-adv-x="1270" 
d="M258 0l479 2732h750l-479 -2732h-750zM1405 2912h-393l-393 672h655z" />
    <glyph glyph-name="Iacute" unicode="&#xcd;" horiz-adv-x="1270" 
d="M258 0l479 2732h750l-479 -2732h-750zM861 2912l360 672h655l-622 -672h-393z" />
    <glyph glyph-name="Icircumflex" unicode="&#xce;" horiz-adv-x="1270" 
d="M258 0l479 2732h750l-479 -2732h-750zM385 2888l557 610h553l393 -610h-544l-217 336l-316 -336h-426z" />
    <glyph glyph-name="Idieresis" unicode="&#xcf;" horiz-adv-x="1270" 
d="M258 0l479 2732h750l-479 -2732h-750zM434 2941l103 590h589l-102 -590h-590zM1270 2941l102 590h594l-102 -590h-594z" />
    <glyph glyph-name="Eth" unicode="&#xd0;" horiz-adv-x="2720" 
d="M258 0l201 1147h-193l86 491h193l192 1094h942q506 0 832 -246q352 -266 352 -794q0 -165 -29 -324q-137 -806 -761 -1159q-342 -193 -684 -205q-54 -4 -197 -4h-934zM1389 2183l-95 -545h394l-86 -491h-394l-106 -610q299 2 489 84.5t299 266t162 501.5q21 113 21 237
q0 376 -250 492q-136 65 -381 65h-53z" />
    <glyph glyph-name="Ntilde" unicode="&#xd1;" horiz-adv-x="2757" 
d="M258 0l479 2732h684l721 -1389l246 1389h590l-479 -2732h-590l-795 1548l-270 -1548h-586zM2380 3461h348q-117 -496 -557 -496q-64 0 -135 17.5t-165 52t-145 50.5t-100 16q-52 0 -77.5 -24t-57.5 -103h-340q64 252 217.5 384t380.5 132q94 0 169.5 -26.5t182.5 -74
t143 -47.5q69 0 136 119z" />
    <glyph glyph-name="Ograve" unicode="&#xd2;" horiz-adv-x="2699" 
d="M360 1364q58 326 192.5 589.5t331 448t439 280t516.5 95.5q336 0 563.5 -137.5t338 -376.5t110.5 -539q0 -163 -29 -311q-50 -298 -168 -562.5t-302.5 -466.5t-441 -317.5t-567.5 -115.5q-297 0 -527 117.5t-359 354t-129 581.5q0 150 32 360zM1147 1364
q-37 -225 -37 -389q0 -479 328 -479q169 0 286.5 117.5t190 319t121.5 476.5q37 228 37 348q0 475 -332 475q-240 0 -381 -226t-213 -642zM2117 2908h-393l-393 672h655z" />
    <glyph glyph-name="Oacute" unicode="&#xd3;" horiz-adv-x="2699" 
d="M360 1364q58 326 192.5 589.5t331 448t439 280t516.5 95.5q336 0 563.5 -137.5t338 -376.5t110.5 -539q0 -163 -29 -311q-50 -298 -168 -562.5t-302.5 -466.5t-441 -317.5t-567.5 -115.5q-297 0 -527 117.5t-359 354t-129 581.5q0 150 32 360zM1147 1364
q-37 -225 -37 -389q0 -479 328 -479q169 0 286.5 117.5t190 319t121.5 476.5q37 228 37 348q0 475 -332 475q-240 0 -381 -226t-213 -642zM1569 2908l360 672h655l-622 -672h-393z" />
    <glyph glyph-name="Ocircumflex" unicode="&#xd4;" horiz-adv-x="2699" 
d="M360 1364q58 326 192.5 589.5t331 448t439 280t516.5 95.5q336 0 563.5 -137.5t338 -376.5t110.5 -539q0 -163 -29 -311q-50 -298 -168 -562.5t-302.5 -466.5t-441 -317.5t-567.5 -115.5q-297 0 -527 117.5t-359 354t-129 581.5q0 150 32 360zM1147 1364
q-37 -225 -37 -389q0 -479 328 -479q169 0 286.5 117.5t190 319t121.5 476.5q37 228 37 348q0 475 -332 475q-240 0 -381 -226t-213 -642zM1102 2888l557 610h553l393 -610h-544l-217 336l-316 -336h-426z" />
    <glyph glyph-name="Otilde" unicode="&#xd5;" horiz-adv-x="2699" 
d="M360 1364q58 326 192.5 589.5t331 448t439 280t516.5 95.5q336 0 563.5 -137.5t338 -376.5t110.5 -539q0 -163 -29 -311q-50 -298 -168 -562.5t-302.5 -466.5t-441 -317.5t-567.5 -115.5q-297 0 -527 117.5t-359 354t-129 581.5q0 150 32 360zM1147 1364
q-37 -225 -37 -389q0 -479 328 -479q169 0 286.5 117.5t190 319t121.5 476.5q37 228 37 348q0 475 -332 475q-240 0 -381 -226t-213 -642zM2356 3457h348q-117 -496 -557 -496q-64 0 -135 17.5t-165 52t-145 50.5t-100 16q-52 0 -77.5 -24t-57.5 -103h-340q64 252 217.5 384
t380.5 132q94 0 169.5 -26.5t182.5 -74t143 -47.5q69 0 136 119z" />
    <glyph glyph-name="Odieresis" unicode="&#xd6;" horiz-adv-x="2699" 
d="M360 1364q58 326 192.5 589.5t331 448t439 280t516.5 95.5q336 0 563.5 -137.5t338 -376.5t110.5 -539q0 -163 -29 -311q-50 -298 -168 -562.5t-302.5 -466.5t-441 -317.5t-567.5 -115.5q-297 0 -527 117.5t-359 354t-129 581.5q0 150 32 360zM1147 1364
q-37 -225 -37 -389q0 -479 328 -479q169 0 286.5 117.5t190 319t121.5 476.5q37 228 37 348q0 475 -332 475q-240 0 -381 -226t-213 -642zM1147 2941l103 590h589l-102 -590h-590zM1983 2941l102 590h594l-102 -590h-594z" />
    <glyph glyph-name="multiply" unicode="&#xd7;" 
d="M827 2314l492 -602l713 610l192 -233l-717 -606l504 -602l-266 -230l-496 606l-712 -610l-197 234l721 610l-504 598z" />
    <glyph glyph-name="Oslash" unicode="&#xd8;" horiz-adv-x="2720" 
d="M463 434q-62 138 -92.5 245t-30.5 288q0 175 41 413q73 424 284 743t519.5 486.5t666.5 167.5q464 0 770 -307l258 246l164 -168l-286 -267q114 -278 114 -536q0 -167 -37 -373q-52 -297 -173.5 -556t-308.5 -453.5t-438 -303t-554 -108.5q-451 0 -754 291l-295 -279
l-164 176zM1102 1040l987 930q-79 262 -324 262q-447 0 -598 -856q-23 -133 -65 -336zM2105 1663l-979 -930q80 -237 316 -237q453 0 606 884q13 75 28 142.5t29 140.5z" />
    <glyph glyph-name="Ugrave" unicode="&#xd9;" horiz-adv-x="2699" 
d="M725 2732h750l-283 -1602q-33 -198 -33 -278q0 -79 29 -156q35 -83 123.5 -131.5t204.5 -48.5q132 0 254 65t180 169q67 111 110 380l283 1602h590l-303 -1724q-43 -250 -112.5 -400.5t-207.5 -292.5q-171 -174 -425.5 -269t-553.5 -95q-217 0 -394 46.5t-297.5 137
t-180.5 221.5q-70 147 -70 328q0 124 33 324zM2117 2908h-393l-393 672h655z" />
    <glyph glyph-name="Uacute" unicode="&#xda;" horiz-adv-x="2699" 
d="M725 2732h750l-283 -1602q-33 -198 -33 -278q0 -79 29 -156q35 -83 123.5 -131.5t204.5 -48.5q132 0 254 65t180 169q67 111 110 380l283 1602h590l-303 -1724q-43 -250 -112.5 -400.5t-207.5 -292.5q-171 -174 -425.5 -269t-553.5 -95q-217 0 -394 46.5t-297.5 137
t-180.5 221.5q-70 147 -70 328q0 124 33 324zM1569 2908l360 672h655l-622 -672h-393z" />
    <glyph glyph-name="Ucircumflex" unicode="&#xdb;" horiz-adv-x="2699" 
d="M725 2732h750l-283 -1602q-33 -198 -33 -278q0 -79 29 -156q35 -83 123.5 -131.5t204.5 -48.5q132 0 254 65t180 169q67 111 110 380l283 1602h590l-303 -1724q-43 -250 -112.5 -400.5t-207.5 -292.5q-171 -174 -425.5 -269t-553.5 -95q-217 0 -394 46.5t-297.5 137
t-180.5 221.5q-70 147 -70 328q0 124 33 324zM1102 2888l557 610h553l393 -610h-544l-217 336l-316 -336h-426z" />
    <glyph glyph-name="Udieresis" unicode="&#xdc;" horiz-adv-x="2699" 
d="M725 2732h750l-283 -1602q-33 -198 -33 -278q0 -79 29 -156q35 -83 123.5 -131.5t204.5 -48.5q132 0 254 65t180 169q67 111 110 380l283 1602h590l-303 -1724q-43 -250 -112.5 -400.5t-207.5 -292.5q-171 -174 -425.5 -269t-553.5 -95q-217 0 -394 46.5t-297.5 137
t-180.5 221.5q-70 147 -70 328q0 124 33 324zM1200 2941l103 590h589l-102 -590h-590zM2036 2941l102 590h594l-102 -590h-594z" />
    <glyph glyph-name="Yacute" unicode="&#xdd;" horiz-adv-x="2458" 
d="M868 0l205 1159l-635 1573h848l344 -930l680 930h668l-1147 -1507l-213 -1225h-750zM1455 2912l360 672h655l-622 -672h-393z" />
    <glyph glyph-name="Thorn" unicode="&#xde;" horiz-adv-x="2699" 
d="M258 0l479 2732h750l-74 -410h504q296 0 501.5 -77t310.5 -227.5t105 -362.5q0 -91 -16 -172q-39 -230 -172.5 -418t-331.5 -291q-156 -80 -328 -113.5t-421 -33.5h-447l-110 -627h-750zM1331 1855l-110 -634h368q210 0 317 74t134 237q8 48 8 74q0 126 -74 188
q-71 61 -274 61h-369z" />
    <glyph glyph-name="germandbls" unicode="&#xdf;" horiz-adv-x="2208" 
d="M217 0l328 1876q44 240 106 379.5t176 255.5q137 136 351 215.5t440 79.5q217 0 381 -72.5t252 -206t88 -307.5q0 -63 -12 -131q-21 -124 -72.5 -220.5t-139.5 -174.5t-223 -146q369 -96 369 -516q0 -104 -16 -196q-34 -196 -114.5 -360.5t-197.5 -281t-264 -178
t-309 -61.5q-169 0 -303 45l78 434q61 -20 110 -20q250 0 324 405q16 88 16 176q0 129 -56.5 185.5t-180.5 56.5q-41 0 -74 -4l82 471h33q135 0 209.5 75t101.5 240q12 67 12 119q0 205 -192 205q-99 0 -163.5 -52t-110 -173t-79.5 -320l-315 -1798h-635z" />
    <glyph glyph-name="agrave" unicode="&#xe0;" horiz-adv-x="2146" 
d="M2154 1352l-167 -963q-29 -219 -29 -246q0 -86 8 -143h-635q0 78 12 205q-347 -246 -659 -246q-222 0 -352.5 118t-130.5 312q0 34 8 98q61 351 394.5 534t912.5 183l28 148q0 241 -225 241q-239 0 -328 -241l-520 131q57 118 148 210t214 155.5t274.5 96.5t326.5 33
q372 0 552.5 -112t180.5 -363q0 -74 -13 -151zM1462 901h-49q-140 0 -260.5 -43t-198.5 -119.5t-94 -169.5q0 -114 49.5 -177.5t134.5 -63.5q141 0 340 127zM1769 2171h-393l-393 672h655z" />
    <glyph glyph-name="aacute" unicode="&#xe1;" horiz-adv-x="2146" 
d="M2154 1352l-167 -963q-29 -219 -29 -246q0 -86 8 -143h-635q0 78 12 205q-347 -246 -659 -246q-222 0 -352.5 118t-130.5 312q0 34 8 98q61 351 394.5 534t912.5 183l28 148q0 241 -225 241q-239 0 -328 -241l-520 131q57 118 148 210t214 155.5t274.5 96.5t326.5 33
q372 0 552.5 -112t180.5 -363q0 -74 -13 -151zM1462 901h-49q-140 0 -260.5 -43t-198.5 -119.5t-94 -169.5q0 -114 49.5 -177.5t134.5 -63.5q141 0 340 127zM1139 2171l360 672h655l-622 -672h-393z" />
    <glyph glyph-name="acircumflex" unicode="&#xe2;" horiz-adv-x="2146" 
d="M2154 1352l-167 -963q-29 -219 -29 -246q0 -86 8 -143h-635q0 78 12 205q-347 -246 -659 -246q-222 0 -352.5 118t-130.5 312q0 34 8 98q61 351 394.5 534t912.5 183l28 148q0 241 -225 241q-239 0 -328 -241l-520 131q57 118 148 210t214 155.5t274.5 96.5t326.5 33
q372 0 552.5 -112t180.5 -363q0 -74 -13 -151zM1462 901h-49q-140 0 -260.5 -43t-198.5 -119.5t-94 -169.5q0 -114 49.5 -177.5t134.5 -63.5q141 0 340 127zM696 2163l557 610h553l393 -610h-544l-217 336l-316 -336h-426z" />
    <glyph glyph-name="atilde" unicode="&#xe3;" horiz-adv-x="2146" 
d="M2154 1352l-167 -963q-29 -219 -29 -246q0 -86 8 -143h-635q0 78 12 205q-347 -246 -659 -246q-222 0 -352.5 118t-130.5 312q0 34 8 98q61 351 394.5 534t912.5 183l28 148q0 241 -225 241q-239 0 -328 -241l-520 131q57 118 148 210t214 155.5t274.5 96.5t326.5 33
q372 0 552.5 -112t180.5 -363q0 -74 -13 -151zM1462 901h-49q-140 0 -260.5 -43t-198.5 -119.5t-94 -169.5q0 -114 49.5 -177.5t134.5 -63.5q141 0 340 127zM1950 2732h348q-117 -496 -557 -496q-64 0 -135 17.5t-165 52t-145 50.5t-100 16q-52 0 -77.5 -24t-57.5 -103h-340
q64 252 217.5 384t380.5 132q94 0 169.5 -26.5t182.5 -74t143 -47.5q69 0 136 119z" />
    <glyph glyph-name="adieresis" unicode="&#xe4;" horiz-adv-x="2146" 
d="M2154 1352l-167 -963q-29 -219 -29 -246q0 -86 8 -143h-635q0 78 12 205q-347 -246 -659 -246q-222 0 -352.5 118t-130.5 312q0 34 8 98q61 351 394.5 534t912.5 183l28 148q0 241 -225 241q-239 0 -328 -241l-520 131q57 118 148 210t214 155.5t274.5 96.5t326.5 33
q372 0 552.5 -112t180.5 -363q0 -74 -13 -151zM1462 901h-49q-140 0 -260.5 -43t-198.5 -119.5t-94 -169.5q0 -114 49.5 -177.5t134.5 -63.5q141 0 340 127zM733 2183l103 590h589l-102 -590h-590zM1569 2183l102 590h594l-102 -590h-594z" />
    <glyph glyph-name="aring" unicode="&#xe5;" horiz-adv-x="2146" 
d="M2154 1352l-167 -963q-29 -219 -29 -246q0 -86 8 -143h-635q0 78 12 205q-347 -246 -659 -246q-222 0 -352.5 118t-130.5 312q0 34 8 98q61 351 394.5 534t912.5 183l28 148q0 241 -225 241q-239 0 -328 -241l-520 131q57 118 148 210t214 155.5t274.5 96.5t326.5 33
q372 0 552.5 -112t180.5 -363q0 -74 -13 -151zM1462 901h-49q-140 0 -260.5 -43t-198.5 -119.5t-94 -169.5q0 -114 49.5 -177.5t134.5 -63.5q141 0 340 127zM1061 2646q22 126 104 235t201 172.5t248 63.5q172 0 284.5 -112.5t112.5 -280.5q0 -20 -8 -78
q-22 -129 -104 -236.5t-202.5 -171t-246.5 -63.5q-174 0 -285.5 110.5t-111.5 278.5q0 24 8 82zM1323 2646q0 -102 47.5 -159.5t124.5 -57.5q86 0 158.5 63.5t87.5 153.5q0 104 -46.5 160.5t-125.5 56.5q-87 0 -159 -64t-87 -153z" />
    <glyph glyph-name="ae" unicode="&#xe6;" horiz-adv-x="3277" 
d="M3314 852h-1217q-8 -53 -8 -127q0 -72 16 -127q32 -96 114.5 -152.5t188.5 -56.5q242 0 431 262l372 -192q-183 -243 -425.5 -371.5t-520.5 -128.5q-449 0 -618 307q-452 -307 -889 -307q-269 0 -413 113.5t-144 316.5q0 74 8 111q27 147 112 271t226.5 216t320.5 143
q204 57 631 62q3 0 25 123q8 48 8 69q0 177 -229 177q-121 0 -195.5 -53.5t-120.5 -176.5l-520 127q126 255 348.5 375.5t573.5 120.5q202 0 338.5 -32.5t279.5 -115.5q327 172 619 172q237 0 400.5 -117.5t241.5 -308.5t78 -417q0 -133 -32 -283zM2159 1192h581
q13 86 13 143q0 258 -218 258q-132 0 -232.5 -107.5t-143.5 -293.5zM1503 557q-20 107 -20 324h-58q-169 0 -323 -62q-215 -79 -246 -254q0 -237 193 -237q112 0 241 65t213 164z" />
    <glyph glyph-name="ccedilla" unicode="&#xe7;" horiz-adv-x="1974" 
d="M1585 688l414 -82q-115 -220 -256 -363t-313.5 -213.5t-380.5 -70.5q-245 0 -426 94.5t-277 269t-96 406.5q0 90 20 213q40 224 143.5 414.5t258.5 332t346 217.5t399 76q218 0 376 -80.5t243 -234t86 -364.5l-586 -29q8 58 8 82q0 209 -188 209q-310 0 -414 -598
q-24 -135 -24 -242q0 -348 274 -348q256 0 393 311zM537 -696l249 499h467l-376 -499h-340z" />
    <glyph glyph-name="egrave" unicode="&#xe8;" horiz-adv-x="2105" 
d="M1667 651l373 -196q-366 -496 -942 -496q-255 0 -446 96.5t-294.5 273.5t-103.5 408q0 104 16 197q50 285 222 525.5t419.5 379.5t509.5 139q229 0 400.5 -102t264.5 -287.5t93 -421.5q0 -95 -20 -225l-17 -94h-1216q-8 -82 -8 -111q0 -344 327 -344q248 0 422 258z
M991 1184h582q8 45 8 123q0 278 -217 278q-132 0 -235 -111t-138 -290zM1749 2171h-393l-393 672h655z" />
    <glyph glyph-name="eacute" unicode="&#xe9;" horiz-adv-x="2105" 
d="M1667 651l373 -196q-366 -496 -942 -496q-255 0 -446 96.5t-294.5 273.5t-103.5 408q0 104 16 197q50 285 222 525.5t419.5 379.5t509.5 139q229 0 400.5 -102t264.5 -287.5t93 -421.5q0 -95 -20 -225l-17 -94h-1216q-8 -82 -8 -111q0 -344 327 -344q248 0 422 258z
M991 1184h582q8 45 8 123q0 278 -217 278q-132 0 -235 -111t-138 -290zM1119 2171l360 672h655l-622 -672h-393z" />
    <glyph glyph-name="ecircumflex" unicode="&#xea;" horiz-adv-x="2105" 
d="M1667 651l373 -196q-366 -496 -942 -496q-255 0 -446 96.5t-294.5 273.5t-103.5 408q0 104 16 197q50 285 222 525.5t419.5 379.5t509.5 139q229 0 400.5 -102t264.5 -287.5t93 -421.5q0 -95 -20 -225l-17 -94h-1216q-8 -82 -8 -111q0 -344 327 -344q248 0 422 258z
M991 1184h582q8 45 8 123q0 278 -217 278q-132 0 -235 -111t-138 -290zM676 2163l557 610h553l393 -610h-544l-217 336l-316 -336h-426z" />
    <glyph glyph-name="edieresis" unicode="&#xeb;" horiz-adv-x="2105" 
d="M1667 651l373 -196q-366 -496 -942 -496q-255 0 -446 96.5t-294.5 273.5t-103.5 408q0 104 16 197q50 285 222 525.5t419.5 379.5t509.5 139q229 0 400.5 -102t264.5 -287.5t93 -421.5q0 -95 -20 -225l-17 -94h-1216q-8 -82 -8 -111q0 -344 327 -344q248 0 422 258z
M991 1184h582q8 45 8 123q0 278 -217 278q-132 0 -235 -111t-138 -290zM721 2183l103 590h589l-102 -590h-590zM1557 2183l102 590h594l-102 -590h-594z" />
    <glyph glyph-name="igrave" unicode="&#xec;" horiz-adv-x="1073" 
d="M217 0l340 1937h635l-340 -1937h-635zM1228 2171h-393l-393 672h655z" />
    <glyph glyph-name="iacute" unicode="&#xed;" horiz-adv-x="1073" 
d="M217 0l340 1937h635l-340 -1937h-635zM603 2171l360 672h655l-622 -672h-393z" />
    <glyph glyph-name="icircumflex" unicode="&#xee;" horiz-adv-x="1073" 
d="M217 0l340 1937h635l-340 -1937h-635zM159 2163l557 610h553l393 -610h-544l-217 336l-316 -336h-426z" />
    <glyph glyph-name="idieresis" unicode="&#xef;" horiz-adv-x="1073" 
d="M217 0l340 1937h635l-340 -1937h-635zM200 2183l103 590h589l-102 -590h-590zM1036 2183l102 590h594l-102 -590h-594z" />
    <glyph glyph-name="eth" unicode="&#xf0;" horiz-adv-x="2122" 
d="M1368 2441l-319 -299l-168 189l282 266l-20 12q-141 94 -307 168l122 205q235 -53 455 -152l381 357l176 -185l-328 -303q603 -405 603 -1196q0 -186 -37 -413q-111 -623 -475 -902q-294 -229 -676 -229q-369 0 -584 215t-215 576q0 95 21 221q52 294 212.5 524
t399 356.5t514.5 126.5q107 0 229 -24q-32 158 -88 260t-178 227zM1339 1565q-131 0 -233 -135q-105 -136 -160 -480q-24 -147 -24 -258q0 -315 213 -315q273 0 381 610q24 154 24 266q-6 312 -201 312z" />
    <glyph glyph-name="ntilde" unicode="&#xf1;" horiz-adv-x="2216" 
d="M217 0l340 1937h635l-57 -315q368 356 696 356q133 0 235 -55t154 -154q41 -75 41 -176q0 -79 -25 -217l-241 -1376h-635l205 1167q20 136 20 238q-25 123 -147 123q-184 0 -357 -209l-229 -1319h-635zM1983 2732h348q-117 -496 -557 -496q-64 0 -135 17.5t-165 52
t-145 50.5t-100 16q-52 0 -77.5 -24t-57.5 -103h-340q64 252 217.5 384t380.5 132q94 0 169.5 -26.5t182.5 -74t143 -47.5q69 0 136 119z" />
    <glyph glyph-name="ograve" unicode="&#xf2;" horiz-adv-x="2122" 
d="M1405 1978q186 0 332 -54.5t250.5 -158.5t158.5 -248.5t54 -320.5q0 -88 -21 -225q-37 -223 -138.5 -411t-252 -321.5t-340 -206.5t-399.5 -73q-244 0 -423.5 97t-275.5 276t-96 418q0 91 20 221q53 295 213 524.5t399.5 356t518.5 126.5zM1335 1565q-286 0 -393 -615
q-24 -147 -24 -258q0 -315 212 -315q142 0 234.5 148.5t146.5 461.5q25 151 25 266q-6 312 -201 312zM1753 2171h-393l-393 672h655z" />
    <glyph glyph-name="oacute" unicode="&#xf3;" horiz-adv-x="2122" 
d="M1405 1978q186 0 332 -54.5t250.5 -158.5t158.5 -248.5t54 -320.5q0 -88 -21 -225q-37 -223 -138.5 -411t-252 -321.5t-340 -206.5t-399.5 -73q-244 0 -423.5 97t-275.5 276t-96 418q0 91 20 221q53 295 213 524.5t399.5 356t518.5 126.5zM1335 1565q-286 0 -393 -615
q-24 -147 -24 -258q0 -315 212 -315q142 0 234.5 148.5t146.5 461.5q25 151 25 266q-6 312 -201 312zM1127 2171l360 672h655l-622 -672h-393z" />
    <glyph glyph-name="ocircumflex" unicode="&#xf4;" horiz-adv-x="2122" 
d="M1405 1978q186 0 332 -54.5t250.5 -158.5t158.5 -248.5t54 -320.5q0 -88 -21 -225q-37 -223 -138.5 -411t-252 -321.5t-340 -206.5t-399.5 -73q-244 0 -423.5 97t-275.5 276t-96 418q0 91 20 221q53 295 213 524.5t399.5 356t518.5 126.5zM1335 1565q-286 0 -393 -615
q-24 -147 -24 -258q0 -315 212 -315q142 0 234.5 148.5t146.5 461.5q25 151 25 266q-6 312 -201 312zM684 2163l557 610h553l393 -610h-544l-217 336l-316 -336h-426z" />
    <glyph glyph-name="otilde" unicode="&#xf5;" horiz-adv-x="2122" 
d="M1405 1978q186 0 332 -54.5t250.5 -158.5t158.5 -248.5t54 -320.5q0 -88 -21 -225q-37 -223 -138.5 -411t-252 -321.5t-340 -206.5t-399.5 -73q-244 0 -423.5 97t-275.5 276t-96 418q0 91 20 221q53 295 213 524.5t399.5 356t518.5 126.5zM1335 1565q-286 0 -393 -615
q-24 -147 -24 -258q0 -315 212 -315q142 0 234.5 148.5t146.5 461.5q25 151 25 266q-6 312 -201 312zM1934 2732h348q-117 -496 -557 -496q-64 0 -135 17.5t-165 52t-145 50.5t-100 16q-52 0 -77.5 -24t-57.5 -103h-340q64 252 217.5 384t380.5 132q94 0 169.5 -26.5
t182.5 -74t143 -47.5q69 0 136 119z" />
    <glyph glyph-name="odieresis" unicode="&#xf6;" horiz-adv-x="2122" 
d="M1405 1978q186 0 332 -54.5t250.5 -158.5t158.5 -248.5t54 -320.5q0 -88 -21 -225q-37 -223 -138.5 -411t-252 -321.5t-340 -206.5t-399.5 -73q-244 0 -423.5 97t-275.5 276t-96 418q0 91 20 221q53 295 213 524.5t399.5 356t518.5 126.5zM1335 1565q-286 0 -393 -615
q-24 -147 -24 -258q0 -315 212 -315q142 0 234.5 148.5t146.5 461.5q25 151 25 266q-6 312 -201 312zM725 2183l103 590h589l-102 -590h-590zM1561 2183l102 590h594l-102 -590h-594z" />
    <glyph glyph-name="divide" unicode="&#xf7;" 
d="M315 1647h1991l-53 -324h-1991zM1450 2425q92 0 146.5 -63.5t54.5 -182.5q-18 -101 -102.5 -171.5t-184.5 -70.5q-91 0 -146 64.5t-55 177.5q19 101 103 173.5t184 72.5zM1204 1028q94 0 149.5 -64t55.5 -178q-18 -102 -104.5 -173.5t-186.5 -71.5q-90 0 -145 63.5
t-55 181.5q15 99 99.5 170.5t186.5 71.5z" />
    <glyph glyph-name="oslash" unicode="&#xf8;" horiz-adv-x="2122" 
d="M385 274q-127 201 -127 471q0 102 21 234q50 291 210 520.5t399.5 356t516.5 126.5q342 0 565 -200l197 188l160 -168l-218 -209q95 -213 95 -397q0 -97 -25 -225q-50 -295 -209.5 -525.5t-398.5 -358.5t-514 -128q-276 0 -504 143l-234 -229l-176 172zM905 770l643 610
q-52 197 -213 197q-266 0 -368 -508q-25 -113 -39 -182.5t-23 -116.5zM1540 1044l-598 -573q64 -111 168 -111q221 0 336 332q55 165 94 352z" />
    <glyph glyph-name="ugrave" unicode="&#xf9;" horiz-adv-x="2228" 
d="M2351 1937l-340 -1937h-635l58 319q-373 -360 -717 -360q-414 0 -414 414q0 97 16 184l242 1380h635l-201 -1138q-20 -131 -20 -262q13 -127 143 -127q175 0 365 208l233 1319h635zM1810 2171h-393l-393 672h655z" />
    <glyph glyph-name="uacute" unicode="&#xfa;" horiz-adv-x="2228" 
d="M2351 1937l-340 -1937h-635l58 319q-373 -360 -717 -360q-414 0 -414 414q0 97 16 184l242 1380h635l-201 -1138q-20 -131 -20 -262q13 -127 143 -127q175 0 365 208l233 1319h635zM1184 2171l360 672h655l-622 -672h-393z" />
    <glyph glyph-name="ucircumflex" unicode="&#xfb;" horiz-adv-x="2228" 
d="M2351 1937l-340 -1937h-635l58 319q-373 -360 -717 -360q-414 0 -414 414q0 97 16 184l242 1380h635l-201 -1138q-20 -131 -20 -262q13 -127 143 -127q175 0 365 208l233 1319h635zM741 2163l557 610h553l393 -610h-544l-217 336l-316 -336h-426z" />
    <glyph glyph-name="udieresis" unicode="&#xfc;" horiz-adv-x="2228" 
d="M2351 1937l-340 -1937h-635l58 319q-373 -360 -717 -360q-414 0 -414 414q0 97 16 184l242 1380h635l-201 -1138q-20 -131 -20 -262q13 -127 143 -127q175 0 365 208l233 1319h635zM782 2183l103 590h589l-102 -590h-590zM1618 2183l102 590h594l-102 -590h-594z" />
    <glyph glyph-name="yacute" unicode="&#xfd;" horiz-adv-x="1876" 
d="M2245 1937l-1012 -1822q-157 -280 -295.5 -429t-309 -208.5t-431.5 -59.5q-111 0 -197 9l82 475q124 -29 225 -29q357 0 357 229q0 41 -13 95l-336 1740h680l193 -1060l569 1060h488zM1008 2171l360 672h655l-622 -672h-393z" />
    <glyph glyph-name="thorn" unicode="&#xfe;" horiz-adv-x="2195" 
d="M119 -573l577 3317h635l-184 -1048q330 286 602 286q260 0 400.5 -176.5t140.5 -498.5q0 -128 -33 -324q-85 -491 -303 -741q-114 -135 -268 -209t-314 -74q-297 0 -479 266l-139 -798h-635zM942 516q106 -160 258 -160q149 0 243.5 161t158.5 527q20 130 20 209
q0 328 -221 328q-131 0 -303 -172z" />
    <glyph glyph-name="ydieresis" unicode="&#xff;" horiz-adv-x="1876" 
d="M2245 1937l-1012 -1822q-157 -280 -295.5 -429t-309 -208.5t-431.5 -59.5q-111 0 -197 9l82 475q124 -29 225 -29q357 0 357 229q0 41 -13 95l-336 1740h680l193 -1060l569 1060h488zM606 2183l103 590h589l-102 -590h-590zM1442 2183l102 590h594l-102 -590h-594z" />
    <glyph glyph-name="dotlessi" unicode="&#x131;" horiz-adv-x="1073" 
d="M217 0l340 1937h635l-340 -1937h-635z" />
    <glyph glyph-name="Lslash" unicode="&#x141;" horiz-adv-x="2232" 
d="M442 1032l-217 -143l94 545l222 147l200 1151h750l-123 -688l483 323l-94 -544l-483 -324l-164 -926h1167l-98 -573h-1917z" />
    <glyph glyph-name="lslash" unicode="&#x142;" horiz-adv-x="1126" 
d="M442 1135l-184 -123l94 532l185 123l188 1077h635l-123 -700l188 127l-94 -533l-184 -127l-266 -1511h-635z" />
    <glyph glyph-name="OE" unicode="&#x152;" horiz-adv-x="3801" 
d="M3539 1655l-102 -574h-775l-90 -508h1258l-99 -573h-2002l8 41q-133 -51 -234.5 -70.5t-232.5 -19.5q-314 0 -544.5 128.5t-351 368.5t-120.5 560q0 153 33 340q58 344 208 632t365 469q391 328 869 328q236 0 466 -102l13 53h1962l-103 -574h-1216l-86 -499h774z
M1667 2232q-483 0 -643 -925q-33 -203 -33 -316q0 -276 106.5 -385.5t254.5 -109.5q276 0 417.5 255.5t208.5 649.5q41 227 41 368q0 463 -352 463z" />
    <glyph glyph-name="oe" unicode="&#x153;" horiz-adv-x="3330" 
d="M2896 655l373 -188q-188 -250 -433.5 -379t-529.5 -129q-381 0 -598 217q-306 -217 -659 -217q-245 0 -423.5 95t-273 272t-94.5 411q0 100 21 226q42 232 142.5 418.5t253.5 321t345 205t410 70.5q377 0 581 -217q300 217 627 217q196 0 347.5 -68.5t251 -200
t138.5 -316.5q25 -109 25 -213q0 -112 -33 -328h-1213q-16 -76 -16 -139q0 -45 12 -95q32 -105 120 -167t204 -62q250 0 422 266zM950 983q-28 -155 -28 -291q0 -319 225 -319q182 0 278 188q60 120 119 438q25 151 25 267q-6 299 -213 299q-302 0 -406 -582zM2212 1188h581
q13 65 13 123q0 135 -57 208.5t-164 73.5q-131 0 -228.5 -107t-144.5 -298z" />
    <glyph glyph-name="Scaron" unicode="&#x160;" horiz-adv-x="2478" 
d="M180 467l529 364q76 -186 211 -269t362 -83q193 0 321 69t146 181q0 134 -96.5 174.5t-448.5 149t-516 252.5t-164 424q0 91 17 172q34 192 139.5 353.5t269.5 279t368 180.5t435 63q232 0 398 -51.5t266.5 -124.5t146 -131t82.5 -119l-500 -356q-95 141 -202.5 201.5
t-268.5 60.5q-105 0 -196 -30t-146.5 -82t-66.5 -117q0 -131 224.5 -204.5t454.5 -138t398 -208t168 -428.5q0 -99 -17 -185q-35 -204 -141.5 -373.5t-272 -291t-378 -185t-453.5 -63.5q-512 0 -748 160.5t-321 355.5zM2585 3498l-557 -610h-553l-393 610h545l221 -336
l311 336h426z" />
    <glyph glyph-name="scaron" unicode="&#x161;" horiz-adv-x="1933" 
d="M152 401l426 209q105 -274 458 -274q146 0 235.5 47t104.5 129q0 99 -78 127.5t-327 81t-369 127.5q-209 133 -209 373q0 32 8 90q34 191 166.5 343.5t334.5 238t433 85.5q567 0 721 -426l-409 -200q-83 245 -377 245q-120 0 -201.5 -44t-93.5 -115q0 -77 72 -111
t242 -64.5t287 -65.5t210 -112q180 -136 180 -372q0 -37 -8 -103q-34 -190 -167.5 -339t-342.5 -230.5t-461 -81.5q-697 0 -835 442zM2200 2773l-557 -610h-553l-393 610h545l221 -336l311 336h426z" />
    <glyph glyph-name="Ydieresis" unicode="&#x178;" horiz-adv-x="2458" 
d="M868 0l205 1159l-635 1573h848l344 -930l680 930h668l-1147 -1507l-213 -1225h-750zM1028 2941l103 590h589l-102 -590h-590zM1864 2941l102 590h594l-102 -590h-594z" />
    <glyph glyph-name="Zcaron" unicode="&#x17d;" horiz-adv-x="2408" 
d="M82 0l61 344l1504 1815h-1061l102 573h2118l-62 -340l-1548 -1819h1180l-99 -573h-2195zM2568 3498l-557 -610h-553l-393 610h545l221 -336l311 336h426z" />
    <glyph glyph-name="zcaron" unicode="&#x17e;" horiz-adv-x="1851" 
d="M82 0l53 303l1098 1200h-791l78 434h1589l-57 -323l-1069 -1176h864l-78 -438h-1687zM2163 2773l-557 -610h-553l-393 610h545l221 -336l311 336h426z" />
    <glyph glyph-name="florin" unicode="&#x192;" horiz-adv-x="2429" 
d="M1061 1958h303l66 192q106 304 229 477.5t294.5 249.5t422.5 76q135 0 307 -28l-156 -451q-115 20 -164 20q-141 0 -208 -52t-119 -206l-99 -278h414l-139 -397h-414l-491 -1389q-71 -207 -137.5 -325t-157.5 -203q-263 -238 -680 -238l-271 16l164 467q120 -16 181 -16
q99 0 152.5 23t90.5 82t84 194l488 1389h-299z" />
    <glyph glyph-name="circumflex" unicode="&#x2c6;" 
d="M651 2163l557 610h553l393 -610h-544l-217 336l-316 -336h-426z" />
    <glyph glyph-name="caron" unicode="&#x2c7;" 
d="M2261 2773l-557 -610h-553l-393 610h545l221 -336l311 336h426z" />
    <glyph glyph-name="breve" unicode="&#x2d8;" 
d="M1946 2822h295q-100 -321 -315 -490t-525 -169q-602 0 -602 659h295q18 -282 360 -282q372 0 492 282z" />
    <glyph glyph-name="dotaccent" unicode="&#x2d9;" 
d="M1110 2183l102 590h590l-102 -590h-590z" />
    <glyph glyph-name="ring" unicode="&#x2da;" 
d="M1016 2646q22 126 104 235t201 172.5t248 63.5q172 0 284.5 -112.5t112.5 -280.5q0 -20 -8 -78q-22 -129 -104 -236.5t-202.5 -171t-246.5 -63.5q-174 0 -285.5 110.5t-111.5 278.5q0 24 8 82zM1278 2646q0 -102 47.5 -159.5t124.5 -57.5q86 0 158.5 63.5t87.5 153.5
q0 104 -46.5 160.5t-125.5 56.5q-87 0 -159 -64t-87 -153z" />
    <glyph glyph-name="ogonek" unicode="&#x2db;" 
d="M2077 0q-162 -39 -239.5 -96.5t-92.5 -149.5q0 -168 156 -168q83 0 188 45l70 -196q-221 -131 -406 -131q-164 0 -260 91t-96 257q34 211 303 348h377z" />
    <glyph glyph-name="tilde" unicode="&#x2dc;" 
d="M1901 2732h348q-117 -496 -557 -496q-64 0 -135 17.5t-165 52t-145 50.5t-100 16q-52 0 -77.5 -24t-57.5 -103h-340q64 252 217.5 384t380.5 132q94 0 169.5 -26.5t182.5 -74t143 -47.5q69 0 136 119z" />
    <glyph glyph-name="hungarumlaut" unicode="&#x2dd;" 
d="M864 2179l328 606h537l-512 -606h-353zM1573 2179l328 606h536l-508 -606h-356z" />
    <glyph glyph-name="emdash" unicode="&#x2013;" horiz-adv-x="2429" 
d="M471 811l90 532h1774l-90 -532h-1774z" />
    <glyph glyph-name="endash" unicode="&#x2014;" horiz-adv-x="2892" 
d="M131 811l90 532h2912l-90 -532h-2912z" />
    <glyph glyph-name="quoteleft" unicode="&#x2018;" horiz-adv-x="1024" 
d="M1253 2253l-118 -684h-697l99 569l434 594h291l-254 -479h245z" />
    <glyph glyph-name="quoteright" unicode="&#x2019;" horiz-adv-x="1024" 
d="M520 2048l123 684h696l-102 -569l-430 -594h-291l250 479h-246z" />
    <glyph glyph-name="quotesinglbase" unicode="&#x201a;" horiz-adv-x="1024" 
d="M164 0l119 684h696l-98 -569l-430 -594h-291l250 479h-246z" />
    <glyph glyph-name="quotedblleft" unicode="&#x201c;" horiz-adv-x="1946" 
d="M2175 2253l-119 -684h-696l98 569l434 594h291l-258 -479h250zM1253 2253l-118 -684h-697l99 569l434 594h291l-254 -479h245z" />
    <glyph glyph-name="quotedblright" unicode="&#x201d;" horiz-adv-x="1946" 
d="M520 2048l123 684h696l-102 -569l-430 -594h-291l250 479h-246zM1442 2048l123 684h696l-102 -569l-430 -594h-295l254 479h-246z" />
    <glyph glyph-name="quotedblbase" unicode="&#x201e;" horiz-adv-x="1946" 
d="M164 0l119 684h696l-98 -569l-430 -594h-291l250 479h-246zM1085 0l119 684h697l-99 -569l-430 -594h-295l254 479h-246z" />
    <glyph glyph-name="dagger" unicode="&#x2020;" horiz-adv-x="2114" 
d="M1798 2732l-115 -655h660l-78 -439h-659l-381 -2183h-529l381 2183h-655l78 439h655l115 655h528z" />
    <glyph glyph-name="daggerdbl" unicode="&#x2021;" horiz-adv-x="2060" 
d="M1774 2732l-115 -655h627l-78 -439h-627l-192 -1089h626l-73 -438h-627l-115 -656h-532l114 656h-626l73 438h627l193 1089h-627l78 439h626l115 655h533z" />
    <glyph glyph-name="bullet" unicode="&#x2022;" horiz-adv-x="2732" 
d="M1712 1962q135 0 241.5 -61t166 -167.5t59.5 -238.5q0 -65 -8 -102q-27 -155 -125 -287t-240 -209.5t-295 -77.5q-208 0 -341.5 135.5t-133.5 339.5q0 33 8 99q28 152 128 284.5t244 208.5t296 76z" />
    <glyph glyph-name="ellipsis" unicode="&#x2026;" horiz-adv-x="3113" 
d="M164 0l119 684h708l-119 -684h-708zM1200 0l119 684h713l-119 -684h-713zM2241 0l118 684h709l-119 -684h-708z" />
    <glyph glyph-name="perthousand" unicode="&#x2030;" horiz-adv-x="3871" 
d="M1212 2773q143 0 249.5 -56.5t164 -161t57.5 -241.5q0 -78 -8 -119q-33 -180 -125.5 -315.5t-233.5 -209t-308 -73.5q-220 0 -348 122.5t-128 332.5q0 58 13 131q30 173 123.5 307.5t234 208.5t309.5 74zM1176 2560q-98 0 -158.5 -90t-95.5 -287q-17 -90 -17 -180
q6 -197 135 -197q189 0 254 377q17 92 17 180q-6 197 -135 197zM262 0l2208 2732h340l-2220 -2732h-328zM2056 1135q216 0 343.5 -125.5t127.5 -333.5q0 -78 -8 -119q-48 -270 -231 -434t-437 -164q-145 0 -253 56t-165 161t-57 242q0 62 13 127q30 173 123.5 307.5
t234 208.5t309.5 74zM2023 926q-193 0 -258 -381q-16 -93 -16 -176q0 -201 135 -201q189 0 254 377q21 128 21 188q0 193 -136 193zM3338 1135q217 0 346 -126.5t129 -336.5q0 -74 -8 -115q-48 -270 -231.5 -434t-440.5 -164q-145 0 -252.5 56t-165 161t-57.5 242
q0 62 13 127q29 172 124 307t236 209t307 74zM3305 926q-188 0 -253 -381q-17 -92 -17 -180q6 -197 135 -197q185 0 250 377q21 128 21 188q0 193 -136 193z" />
    <glyph glyph-name="guilsinglleft" unicode="&#x2039;" horiz-adv-x="975" 
d="M954 483h-532l-156 570l381 610h512l-373 -610z" />
    <glyph glyph-name="guilsinglright" unicode="&#x203a;" horiz-adv-x="975" 
d="M193 483l364 570l-160 610h508l172 -610l-352 -570h-532z" />
    <glyph glyph-name="fraction" unicode="&#x2044;" horiz-adv-x="598" 
d="M-737 0l2207 2732h345l-2221 -2732h-331z" />
    <glyph glyph-name="trademark" unicode="&#x2122;" horiz-adv-x="3731" 
d="M676 1094l221 1273h-459l66 365h1417l-66 -365h-458l-221 -1273h-500zM1843 1094l287 1638h700l107 -762l393 762h692l-286 -1638h-496l188 1073l-540 -1073h-303l-160 1069l-184 -1069h-398z" />
    <glyph glyph-name="minus" unicode="&#x2212;" 
d="M315 1642h1991l-53 -319h-1991z" />
    <glyph glyph-name="periodcentered" unicode="&#x2219;" horiz-adv-x="1036" 
d="M287 709l119 684h708l-119 -684h-708z" />
    <glyph glyph-name="fi" unicode="&#xf001;" horiz-adv-x="2347" 
d="M352 0l262 1499l-303 -4l78 447l311 -13q3 51 12.5 154.5t20.5 173.5q93 524 705 524q161 0 372 -28l-77 -426q-50 4 -111 4q-124 0 -181.5 -50.5t-80.5 -183.5l-29 -164l500 4h639l-340 -1937h-639l262 1487l-500 20l-262 -1507h-639zM1872 2171l98 573h639l-98 -573
h-639z" />
    <glyph glyph-name="fl" unicode="&#xf002;" horiz-adv-x="2347" 
d="M352 0l262 1499l-303 -4l78 447l311 -13q3 51 12.5 154.5t20.5 173.5q93 524 705 524q161 0 372 -28l-77 -426q-50 4 -111 4q-124 0 -181.5 -50.5t-80.5 -183.5l-29 -164l332 4l-78 -450l-332 20l-262 -1507h-639zM2609 2732l-479 -2732h-639l479 2732h639z" />
    </font>
</defs>
</svg>
